<?xml version="1.0" encoding="UTF-8" standalone="no"?>
<!-- Created with Inkscape (http://www.inkscape.org/) -->

<svg xmlns:dc="http://purl.org/dc/elements/1.1/"
   xmlns:cc="http://creativecommons.org/ns#"
   xmlns:rdf="http://www.w3.org/1999/02/22-rdf-syntax-ns#"
   xmlns:svg="http://www.w3.org/2000/svg"
   xmlns="http://www.w3.org/2000/svg"
   xmlns:sodipodi="http://sodipodi.sourceforge.net/DTD/sodipodi-0.dtd"
   xmlns:inkscape="http://www.inkscape.org/namespaces/inkscape" width="48px" height="48px" viewBox="0 0 16.933334 16.933333" version="1.1" id="svg979" inkscape:version="0.92.4 (5da689c313, 2019-01-14)" sodipodi:docname="2 - Hair Comb.svg" inkscape:export-filename="E:\TR Design Studio Creative\Project Design\TR Creative Design\Icon Design\Project Hiring\Icon Icons\Project - 001\002 - Beauty And Fashion\Send\3 - Flat\2 - Hair Comb.png" inkscape:export-xdpi="768" inkscape:export-ydpi="768">
   <defs id="defs973" />
   <sodipodi:namedview id="base" pagecolor="#ffffff" bordercolor="#666666" borderopacity="1.0" inkscape:pageopacity="0.0" inkscape:pageshadow="2" inkscape:zoom="8.546875" inkscape:cx="32" inkscape:cy="32" inkscape:document-units="pt" inkscape:current-layer="layer1" showgrid="false" units="pt" inkscape:window-width="1366" inkscape:window-height="716" inkscape:window-x="-8" inkscape:window-y="-8" inkscape:window-maximized="1" inkscape:snap-bbox="true" inkscape:bbox-nodes="true" inkscape:snap-nodes="false" showguides="false">
      <inkscape:grid type="xygrid" id="grid1526" />
      <sodipodi:guide position="0.97013909,15.963209" orientation="56.666615,0" id="guide1528" inkscape:locked="false" />
      <sodipodi:guide position="0.97013909,0.97016731" orientation="0,56.666667" id="guide1530" inkscape:locked="false" />
      <sodipodi:guide position="15.963195,0.97016731" orientation="-56.666615,0" id="guide1532" inkscape:locked="false" />
      <sodipodi:guide position="15.963195,15.963209" orientation="0,-56.666667" id="guide1534" inkscape:locked="false" />
   </sodipodi:namedview>
   <metadata id="metadata976">
      <rdf:RDF>
         <cc:Work rdf:about="">
            <dc:format>image/svg+xml</dc:format>
            <dc:type rdf:resource="http://purl.org/dc/dcmitype/StillImage" />
            <dc:title></dc:title>
         </cc:Work>
      </rdf:RDF>
   </metadata>
   <g inkscape:label="Layer 1" inkscape:groupmode="layer" id="layer1" transform="translate(0,-280.06668)">
      <g transform="matrix(1.2317498,0,0,1.2317498,27.762941,-42.360009)" style="display:inline;stroke-width:0.81185323" id="g1901">
         <g id="g1879" style="stroke-width:0.81185323">
            <path style="color:#000000;font-style:normal;font-variant:normal;font-weight:normal;font-stretch:normal;font-size:medium;line-height:normal;font-family:sans-serif;font-variant-ligatures:normal;font-variant-position:normal;font-variant-caps:normal;font-variant-numeric:normal;font-variant-alternates:normal;font-feature-settings:normal;text-indent:0;text-align:start;text-decoration:none;text-decoration-line:none;text-decoration-style:solid;text-decoration-color:#000000;letter-spacing:normal;word-spacing:normal;text-transform:none;writing-mode:lr-tb;direction:ltr;text-orientation:mixed;dominant-baseline:auto;baseline-shift:baseline;text-anchor:start;white-space:normal;shape-padding:0;clip-rule:nonzero;display:inline;overflow:visible;visibility:visible;opacity:1;isolation:auto;mix-blend-mode:normal;color-interpolation:sRGB;color-interpolation-filters:linearRGB;solid-color:#000000;solid-opacity:1;vector-effect:none;fill:#5986d1;fill-opacity:1;fill-rule:nonzero;stroke:none;stroke-width:1.62370741;stroke-linecap:round;stroke-linejoin:round;stroke-miterlimit:4;stroke-dasharray:none;stroke-dashoffset:0;stroke-opacity:1;paint-order:markers fill stroke;color-rendering:auto;image-rendering:auto;shape-rendering:auto;text-rendering:auto;enable-background:accumulate" d="m -76.800781,-74.199219 a 1.0015857,1.0015857 0 0 0 0.103515,2 h 10.998047 a 1.000252,1.000252 0 1 0 0,-2 h -10.998047 a 1.0001006,1.0001006 0 0 0 -0.103515,0 z m 0,4 a 1.0015857,1.0015857 0 0 0 0.103515,2 h 10.998047 a 1.000252,1.000252 0 1 0 0,-2 h -10.998047 a 1.0001006,1.0001006 0 0 0 -0.103515,0 z m 0,4.001953 a 1.0015669,1.0015669 0 0 0 0.103515,2 h 10.998047 a 1.0002331,1.0002331 0 1 0 0,-2 h -10.998047 a 1.0001006,1.0001006 0 0 0 -0.103515,0 z m 0,4 a 1.0015857,1.0015857 0 0 0 0.103515,2 h 10.998047 a 1.000252,1.000252 0 1 0 0,-2 h -10.998047 a 1.0001006,1.0001006 0 0 0 -0.103515,0 z" transform="matrix(0.26458333,0,0,0.26458333,0,284.3)" id="path1561" inkscape:connector-curvature="0" inkscape:export-xdpi="700.72992" inkscape:export-ydpi="700.72992" />
            <path style="fill:#4568a3;fill-opacity:1;stroke:none;stroke-width:1.62370634;stroke-linecap:round;stroke-linejoin:round;stroke-miterlimit:1.5;stroke-opacity:1;paint-order:markers fill stroke" d="m -69.501953,-74.199219 v 2 h 3.802734 a 1.000252,1.000252 0 1 0 0,-2 z m 0,4 v 2 h 3.802734 a 1.000252,1.000252 0 1 0 0,-2 z m 0,4.001953 v 2 h 3.802734 a 1.0002331,1.0002331 0 1 0 0,-2 z m 0,4 v 2 h 3.802734 a 1.000252,1.000252 0 1 0 0,-2 z" transform="matrix(0.26458333,0,0,0.26458333,0,284.3)" id="rect1703" inkscape:connector-curvature="0" inkscape:export-xdpi="700.72992" inkscape:export-ydpi="700.72992" />
            <path style="color:#000000;font-style:normal;font-variant:normal;font-weight:normal;font-stretch:normal;font-size:medium;line-height:normal;font-family:sans-serif;font-variant-ligatures:normal;font-variant-position:normal;font-variant-caps:normal;font-variant-numeric:normal;font-variant-alternates:normal;font-feature-settings:normal;text-indent:0;text-align:start;text-decoration:none;text-decoration-line:none;text-decoration-style:solid;text-decoration-color:#000000;letter-spacing:normal;word-spacing:normal;text-transform:none;writing-mode:lr-tb;direction:ltr;text-orientation:mixed;dominant-baseline:auto;baseline-shift:baseline;text-anchor:start;white-space:normal;shape-padding:0;clip-rule:nonzero;display:inline;overflow:visible;visibility:visible;opacity:1;isolation:auto;mix-blend-mode:normal;color-interpolation:sRGB;color-interpolation-filters:linearRGB;solid-color:#000000;solid-opacity:1;vector-effect:none;fill:#82b1ff;fill-opacity:1;fill-rule:nonzero;stroke:none;stroke-width:0.42960593;stroke-linecap:round;stroke-linejoin:round;stroke-miterlimit:4;stroke-dasharray:none;stroke-dashoffset:0;stroke-opacity:1;paint-order:markers fill stroke;color-rendering:auto;image-rendering:auto;shape-rendering:auto;text-rendering:auto;enable-background:accumulate" d="m -19.234375,262.55078 c -0.455671,0 -0.814052,0.16515 -1.03125,0.42578 -0.217198,0.26064 -0.292969,0.58976 -0.292969,0.89844 a 0.26460996,0.26460996 0 0 0 0.265625,0.26367 h 2.644531 v 4.76172 h -2.644531 a 0.26460996,0.26460996 0 0 0 -0.265625,0.26563 c 0,0.30868 0.07577,0.63584 0.292969,0.89648 0.217198,0.26064 0.575579,0.42578 1.03125,0.42578 0.888244,0 1.250935,0.18641 1.412109,0.39063 0.161175,0.20421 0.173828,0.51885 0.173828,0.89843 v 0.29883 c -0.372758,0 -0.675681,0.19478 -0.839843,0.45508 -0.164162,0.2603 -0.216797,0.56803 -0.216797,0.86719 0,0.29915 0.05263,0.60884 0.216797,0.86914 0.164162,0.2603 0.467085,0.45508 0.839843,0.45508 h 0.794922 c 0.352777,0 0.644529,-0.19434 0.814454,-0.44922 0.169924,-0.25489 0.24414,-0.56632 0.24414,-0.875 v -9.92188 c 0,-0.50844 -0.417331,-0.92578 -0.925781,-0.92578 z" id="path1655" inkscape:connector-curvature="0" inkscape:export-xdpi="700.72992" inkscape:export-ydpi="700.72992" />
            <path style="color:#000000;font-style:normal;font-variant:normal;font-weight:normal;font-stretch:normal;font-size:medium;line-height:normal;font-family:sans-serif;font-variant-ligatures:normal;font-variant-position:normal;font-variant-caps:normal;font-variant-numeric:normal;font-variant-alternates:normal;font-feature-settings:normal;text-indent:0;text-align:start;text-decoration:none;text-decoration-line:none;text-decoration-style:solid;text-decoration-color:#000000;letter-spacing:normal;word-spacing:normal;text-transform:none;writing-mode:lr-tb;direction:ltr;text-orientation:mixed;dominant-baseline:auto;baseline-shift:baseline;text-anchor:start;white-space:normal;shape-padding:0;clip-rule:nonzero;display:inline;overflow:visible;visibility:visible;opacity:1;isolation:auto;mix-blend-mode:normal;color-interpolation:sRGB;color-interpolation-filters:linearRGB;solid-color:#000000;solid-opacity:1;vector-effect:none;fill:#648aff;fill-opacity:1;fill-rule:nonzero;stroke:none;stroke-width:0.42960593;stroke-linecap:round;stroke-linejoin:round;stroke-miterlimit:4;stroke-dasharray:none;stroke-dashoffset:0;stroke-opacity:1;paint-order:markers fill stroke;color-rendering:auto;image-rendering:auto;shape-rendering:auto;text-rendering:auto;enable-background:accumulate" d="m -17.410156,273.13477 a 0.26499792,0.26499792 0 0 0 0.02734,0.52929 h 0.263671 a 0.264645,0.264645 0 1 0 0,-0.52929 h -0.263671 a 0.26460996,0.26460996 0 0 0 -0.02734,0 z" id="path1569" inkscape:connector-curvature="0" inkscape:export-xdpi="700.72992" inkscape:export-ydpi="700.72992" />
            <path style="color:#000000;font-style:normal;font-variant:normal;font-weight:normal;font-stretch:normal;font-size:medium;line-height:normal;font-family:sans-serif;font-variant-ligatures:normal;font-variant-position:normal;font-variant-caps:normal;font-variant-numeric:normal;font-variant-alternates:normal;font-feature-settings:normal;text-indent:0;text-align:start;text-decoration:none;text-decoration-line:none;text-decoration-style:solid;text-decoration-color:#000000;letter-spacing:normal;word-spacing:normal;text-transform:none;writing-mode:lr-tb;direction:ltr;text-orientation:mixed;dominant-baseline:auto;baseline-shift:baseline;text-anchor:start;white-space:normal;shape-padding:0;clip-rule:nonzero;display:inline;overflow:visible;visibility:visible;opacity:1;isolation:auto;mix-blend-mode:normal;color-interpolation:sRGB;color-interpolation-filters:linearRGB;solid-color:#000000;solid-opacity:1;vector-effect:none;fill:#648aff;fill-opacity:1;fill-rule:nonzero;stroke:none;stroke-width:0.42960593;stroke-linecap:round;stroke-linejoin:round;stroke-miterlimit:4;stroke-dasharray:none;stroke-dashoffset:0;stroke-opacity:1;paint-order:markers fill stroke;color-rendering:auto;image-rendering:auto;shape-rendering:auto;text-rendering:auto;enable-background:accumulate" d="m -19.217001,262.55094 c -0.455671,0 -0.813747,0.16518 -1.030945,0.42581 -0.06294,0.0755 -0.111143,0.1575 -0.151929,0.24237 0.184204,-0.0879 0.403657,-0.13901 0.653707,-0.13901 h 2.513542 c 0.50845,0 0.926041,0.41708 0.926041,0.92552 v 9.92188 c 0,0.24861 -0.05113,0.49761 -0.158646,0.71882 0.185092,-0.0795 0.338306,-0.21472 0.4439,-0.37311 0.169924,-0.25489 0.243913,-0.5662 0.243913,-0.87488 v -9.92187 c 0,-0.50844 -0.417592,-0.92553 -0.926042,-0.92553 z" id="path1666" inkscape:connector-curvature="0" sodipodi:nodetypes="sccssssccssss" inkscape:export-xdpi="700.72992" inkscape:export-ydpi="700.72992" />
            <path style="color:#000000;font-style:normal;font-variant:normal;font-weight:normal;font-stretch:normal;font-size:medium;line-height:normal;font-family:sans-serif;font-variant-ligatures:normal;font-variant-position:normal;font-variant-caps:normal;font-variant-numeric:normal;font-variant-alternates:normal;font-feature-settings:normal;text-indent:0;text-align:start;text-decoration:none;text-decoration-line:none;text-decoration-style:solid;text-decoration-color:#000000;letter-spacing:normal;word-spacing:normal;text-transform:none;writing-mode:lr-tb;direction:ltr;text-orientation:mixed;dominant-baseline:auto;baseline-shift:baseline;text-anchor:start;white-space:normal;shape-padding:0;clip-rule:nonzero;display:inline;overflow:visible;visibility:visible;opacity:1;isolation:auto;mix-blend-mode:normal;color-interpolation:sRGB;color-interpolation-filters:linearRGB;solid-color:#000000;solid-opacity:1;vector-effect:none;fill:#648aff;fill-opacity:1;fill-rule:nonzero;stroke:none;stroke-width:0.42960593;stroke-linecap:round;stroke-linejoin:round;stroke-miterlimit:4;stroke-dasharray:none;stroke-dashoffset:0;stroke-opacity:1;paint-order:markers fill stroke;color-rendering:auto;image-rendering:auto;shape-rendering:auto;text-rendering:auto;enable-background:accumulate" d="m -20.292721,268.90051 c -0.146928,-5.5e-4 -0.266177,0.11869 -0.265617,0.26562 0,0.30868 0.07581,0.63595 0.293006,0.89659 0.217198,0.26064 0.575273,0.42581 1.030944,0.42581 0.888244,0 1.251143,0.18645 1.412317,0.39067 0.161175,0.20421 0.173633,0.51856 0.173633,0.89814 v 0.29869 c -0.372758,0 -0.67558,0.19497 -0.839742,0.45527 -0.164162,0.2603 -0.217041,0.56797 -0.217041,0.86713 0,0.29915 0.05287,0.6089 0.217041,0.8692 0.164162,0.2603 0.466984,0.45527 0.839742,0.45527 h 0.529167 c -0.372758,0 -0.67558,-0.19497 -0.839742,-0.45527 -0.164167,-0.2603 -0.217041,-0.57005 -0.217041,-0.8692 0,-0.29916 0.05288,-0.60683 0.217041,-0.86713 0.164162,-0.2603 0.466984,-0.45527 0.839742,-0.45527 v -0.29869 c 0,-0.37958 -0.01246,-0.69393 -0.173633,-0.89814 -0.161174,-0.20422 -0.524073,-0.39067 -1.412317,-0.39067 -0.455671,0 -0.813747,-0.16517 -1.030945,-0.42581 -0.217199,-0.26064 -0.293005,-0.58791 -0.293005,-0.89659 -5.56e-4,-0.14693 0.118689,-0.26618 0.265617,-0.26562 z" id="path1714" inkscape:connector-curvature="0" sodipodi:nodetypes="cccscscsscsccsscscscccc" inkscape:export-xdpi="700.72992" inkscape:export-ydpi="700.72992" />
         </g>
         <g id="g1886" style="stroke-width:0.81185323">
            <path style="color:#000000;font-style:normal;font-variant:normal;font-weight:normal;font-stretch:normal;font-size:medium;line-height:normal;font-family:sans-serif;font-variant-ligatures:normal;font-variant-position:normal;font-variant-caps:normal;font-variant-numeric:normal;font-variant-alternates:normal;font-feature-settings:normal;text-indent:0;text-align:start;text-decoration:none;text-decoration-line:none;text-decoration-style:solid;text-decoration-color:#000000;letter-spacing:normal;word-spacing:normal;text-transform:none;writing-mode:lr-tb;direction:ltr;text-orientation:mixed;dominant-baseline:auto;baseline-shift:baseline;text-anchor:start;white-space:normal;shape-padding:0;clip-rule:nonzero;display:inline;overflow:visible;visibility:visible;opacity:1;isolation:auto;mix-blend-mode:normal;color-interpolation:sRGB;color-interpolation-filters:linearRGB;solid-color:#000000;solid-opacity:1;vector-effect:none;fill:#ee8516;fill-opacity:1;fill-rule:nonzero;stroke:none;stroke-width:1.62370741;stroke-linecap:round;stroke-linejoin:round;stroke-miterlimit:4;stroke-dasharray:none;stroke-dashoffset:0;stroke-opacity:1;paint-order:markers fill stroke;color-rendering:auto;image-rendering:auto;shape-rendering:auto;text-rendering:auto;enable-background:accumulate" d="m -55.689453,-82.201172 a 1.000252,1.000252 0 1 0 0,2 h 8.001953 a 1.000252,1.000252 0 1 0 0,-2 z m 0,4 a 1.0002331,1.0002331 0 0 0 0,2 h 8.001953 a 1.0002331,1.0002331 0 1 0 0,-2 z m -0.0957,4.001953 a 1.0014022,1.0014022 0 0 0 0.0957,2 h 8.001953 a 1.000252,1.000252 0 1 0 0,-2 h -8.001953 a 1.0001006,1.0001006 0 0 0 -0.0957,0 z m 0,4 a 1.0014022,1.0014022 0 0 0 0.0957,2 h 8.001953 a 1.000252,1.000252 0 1 0 0,-2 h -8.001953 a 1.0001006,1.0001006 0 0 0 -0.0957,0 z m 0,4.001953 a 1.0013833,1.0013833 0 0 0 0.0957,2 h 8.001953 a 1.0002331,1.0002331 0 1 0 0,-2 h -8.001953 a 1.0001006,1.0001006 0 0 0 -0.0957,0 z m 0,4 a 1.0014022,1.0014022 0 0 0 0.0957,2 h 7.5 a 1.000252,1.000252 0 1 0 0,-2 h -7.5 a 1.0001006,1.0001006 0 0 0 -0.0957,0 z" transform="matrix(0.26458333,0,0,0.26458333,0,284.3)" id="path1600" inkscape:connector-curvature="0" inkscape:export-xdpi="700.72992" inkscape:export-ydpi="700.72992" />
            <path style="fill:#c66f12;fill-opacity:1;stroke:none;stroke-width:1.62370634;stroke-linecap:round;stroke-linejoin:round;stroke-miterlimit:1.5;stroke-opacity:1;paint-order:markers fill stroke" d="m -51.160156,-82.201172 v 2 h 3.472656 a 1.000252,1.000252 0 1 0 0,-2 z m 0,4 v 2 h 3.472656 a 1.0002331,1.0002331 0 1 0 0,-2 z m 0,4.001953 v 2 h 3.472656 a 1.000252,1.000252 0 1 0 0,-2 z m 0,4 v 2 h 3.472656 a 1.000252,1.000252 0 1 0 0,-2 z m 0,4.001953 v 2 h 3.472656 a 1.0002331,1.0002331 0 1 0 0,-2 z m 0,4 v 2 h 2.970703 a 1.000252,1.000252 0 1 0 0,-2 z" transform="matrix(0.26458333,0,0,0.26458333,0,284.3)" id="rect1705" inkscape:connector-curvature="0" inkscape:export-xdpi="700.72992" inkscape:export-ydpi="700.72992" />
            <path style="color:#000000;font-style:normal;font-variant:normal;font-weight:normal;font-stretch:normal;font-size:medium;line-height:normal;font-family:sans-serif;font-variant-ligatures:normal;font-variant-position:normal;font-variant-caps:normal;font-variant-numeric:normal;font-variant-alternates:normal;font-feature-settings:normal;text-indent:0;text-align:start;text-decoration:none;text-decoration-line:none;text-decoration-style:solid;text-decoration-color:#000000;letter-spacing:normal;word-spacing:normal;text-transform:none;writing-mode:lr-tb;direction:ltr;text-orientation:mixed;dominant-baseline:auto;baseline-shift:baseline;text-anchor:start;white-space:normal;shape-padding:0;clip-rule:nonzero;display:inline;overflow:visible;visibility:visible;opacity:1;isolation:auto;mix-blend-mode:normal;color-interpolation:sRGB;color-interpolation-filters:linearRGB;solid-color:#000000;solid-opacity:1;vector-effect:none;fill:#ffab40;fill-opacity:1;fill-rule:nonzero;stroke:none;stroke-width:0.42960593;stroke-linecap:round;stroke-linejoin:round;stroke-miterlimit:4;stroke-dasharray:none;stroke-dashoffset:0;stroke-opacity:1;paint-order:markers fill stroke;color-rendering:auto;image-rendering:auto;shape-rendering:auto;text-rendering:auto;enable-background:accumulate" d="m -12.617188,262.55078 a 0.26460996,0.26460996 0 0 0 -0.263671,0.26563 v 6.08398 h -1.720703 a 0.26460996,0.26460996 0 0 0 -0.263672,0.26563 c 0,0.56223 0.108071,0.93655 0.388672,1.14062 0.2806,0.20407 0.602864,0.18164 0.933593,0.18164 0.155915,0 0.236805,0.05 0.328125,0.16406 0.09132,0.11406 0.171912,0.30417 0.22461,0.53516 0.105394,0.46199 0.109375,1.06572 0.109375,1.50781 -0.266725,0.22278 -0.528874,0.47886 -0.529297,0.83594 0,0.65443 0.535023,1.19141 1.189453,1.19141 0.654429,0 1.191406,-0.53698 1.191406,-1.19141 0,-1.31897 -3.7e-4,-2.75294 0,-4.10156 0,-0.67278 0.06202,-0.97107 0.128906,-1.36524 0.06688,-0.39416 0.134766,-0.86995 0.134766,-1.80859 0,-1.0506 -0.06397,-1.9195 -0.222656,-2.55664 -0.07934,-0.31857 -0.180027,-0.58012 -0.330078,-0.78516 -0.150051,-0.20503 -0.374808,-0.3556 -0.628907,-0.36328 a 0.26460996,0.26460996 0 0 0 -0.0078,0 z" id="path1678" inkscape:connector-curvature="0" inkscape:export-xdpi="700.72992" inkscape:export-ydpi="700.72992" />
            <path style="color:#000000;font-style:normal;font-variant:normal;font-weight:normal;font-stretch:normal;font-size:medium;line-height:normal;font-family:sans-serif;font-variant-ligatures:normal;font-variant-position:normal;font-variant-caps:normal;font-variant-numeric:normal;font-variant-alternates:normal;font-feature-settings:normal;text-indent:0;text-align:start;text-decoration:none;text-decoration-line:none;text-decoration-style:solid;text-decoration-color:#000000;letter-spacing:normal;word-spacing:normal;text-transform:none;writing-mode:lr-tb;direction:ltr;text-orientation:mixed;dominant-baseline:auto;baseline-shift:baseline;text-anchor:start;white-space:normal;shape-padding:0;clip-rule:nonzero;display:inline;overflow:visible;visibility:visible;opacity:1;isolation:auto;mix-blend-mode:normal;color-interpolation:sRGB;color-interpolation-filters:linearRGB;solid-color:#000000;solid-opacity:1;vector-effect:none;fill:#ee8516;fill-opacity:1;fill-rule:nonzero;stroke:none;stroke-width:0.42960593;stroke-linecap:round;stroke-linejoin:round;stroke-miterlimit:4;stroke-dasharray:none;stroke-dashoffset:0;stroke-opacity:1;paint-order:markers fill stroke;color-rendering:auto;image-rendering:auto;shape-rendering:auto;text-rendering:auto;enable-background:accumulate" d="m -12.476237,262.55094 c 0.254099,0.008 0.478851,0.15826 0.628902,0.36329 0.150051,0.20504 0.250356,0.46639 0.329696,0.78496 0.158686,0.63714 0.222725,1.50583 0.222725,2.55643 0,0.93864 -0.06799,1.41452 -0.134875,1.80868 -0.06689,0.39417 -0.128675,0.69251 -0.128675,1.36529 -3.7e-4,1.34862 0,2.78259 0,4.10156 0,0.56319 -0.398568,1.03778 -0.926558,1.15962 0.08534,0.0197 0.172981,0.032 0.264067,0.032 0.654428,0 1.191658,-0.53723 1.191658,-1.19166 0,-1.31897 -3.7e-4,-2.75294 0,-4.10156 0,-0.67278 0.06179,-0.97112 0.128674,-1.36529 0.06688,-0.39416 0.134876,-0.87004 0.134876,-1.80868 0,-1.0506 -0.06404,-1.91929 -0.222726,-2.55643 -0.07934,-0.31857 -0.179644,-0.57992 -0.329695,-0.78496 -0.150051,-0.20503 -0.374803,-0.35561 -0.628902,-0.36329 a 0.26460995,0.26460995 0 0 0 -0.0078,0 z" id="path1697" inkscape:connector-curvature="0" inkscape:export-xdpi="700.72992" inkscape:export-ydpi="700.72992" />
            <path style="color:#000000;font-style:normal;font-variant:normal;font-weight:normal;font-stretch:normal;font-size:medium;line-height:normal;font-family:sans-serif;font-variant-ligatures:normal;font-variant-position:normal;font-variant-caps:normal;font-variant-numeric:normal;font-variant-alternates:normal;font-feature-settings:normal;text-indent:0;text-align:start;text-decoration:none;text-decoration-line:none;text-decoration-style:solid;text-decoration-color:#000000;letter-spacing:normal;word-spacing:normal;text-transform:none;writing-mode:lr-tb;direction:ltr;text-orientation:mixed;dominant-baseline:auto;baseline-shift:baseline;text-anchor:start;white-space:normal;shape-padding:0;clip-rule:nonzero;display:inline;overflow:visible;visibility:visible;opacity:1;isolation:auto;mix-blend-mode:normal;color-interpolation:sRGB;color-interpolation-filters:linearRGB;solid-color:#000000;solid-opacity:1;vector-effect:none;fill:#ee8516;fill-opacity:1;fill-rule:nonzero;stroke:none;stroke-width:0.42960593;stroke-linecap:round;stroke-linejoin:round;stroke-miterlimit:4;stroke-dasharray:none;stroke-dashoffset:0;stroke-opacity:1;paint-order:markers fill stroke;color-rendering:auto;image-rendering:auto;shape-rendering:auto;text-rendering:auto;enable-background:accumulate" d="m -14.601756,268.90042 c -0.14612,5.9e-4 -0.264107,0.1195 -0.26355,0.26562 0,0.56223 0.108006,0.93643 0.388607,1.1405 0.2806,0.20407 0.603064,0.1819 0.933793,0.1819 0.155915,0 0.236825,0.0497 0.328145,0.16381 0.09132,0.11406 0.171578,0.30438 0.224276,0.53537 0.105394,0.46199 0.109554,1.06583 0.109554,1.50792 -0.266725,0.22278 -0.528744,0.47853 -0.529167,0.83561 0,0.65443 0.534645,1.19166 1.189075,1.19166 0.09124,0 0.179565,-0.0123 0.2651,-0.032 -0.527802,-0.12168 -0.925008,-0.59628 -0.925008,-1.15962 4.23e-4,-0.35708 0.262442,-0.61283 0.529166,-0.83561 1e-6,-0.44209 -0.0042,-1.04593 -0.109554,-1.50792 -0.0527,-0.23099 -0.132955,-0.42131 -0.224275,-0.53537 -0.09132,-0.11406 -0.172231,-0.16381 -0.328146,-0.16381 -0.330729,0 -0.653193,0.0222 -0.933793,-0.1819 -0.280601,-0.20407 -0.388607,-0.57827 -0.388607,-1.1405 -5.55e-4,-0.14612 0.117431,-0.26503 0.26355,-0.26562 z" id="path1719" inkscape:connector-curvature="0" sodipodi:nodetypes="cccsscccsccccsscccc" inkscape:export-xdpi="700.72992" inkscape:export-ydpi="700.72992" />
         </g>
      </g>
   </g>
</svg>
