<?xml version="1.0" encoding="UTF-8" standalone="no"?>
<!-- Created with Inkscape (http://www.inkscape.org/) -->

<svg xmlns:dc="http://purl.org/dc/elements/1.1/"
   xmlns:cc="http://creativecommons.org/ns#"
   xmlns:rdf="http://www.w3.org/1999/02/22-rdf-syntax-ns#"
   xmlns:svg="http://www.w3.org/2000/svg"
   xmlns="http://www.w3.org/2000/svg"
   xmlns:sodipodi="http://sodipodi.sourceforge.net/DTD/sodipodi-0.dtd"
   xmlns:inkscape="http://www.inkscape.org/namespaces/inkscape" width="48px" height="48px" viewBox="0 0 16.933334 16.933333" version="1.1" id="svg979" inkscape:version="0.92.4 (5da689c313, 2019-01-14)" sodipodi:docname="6 - Hair Dryer.svg" inkscape:export-filename="E:\TR Design Studio Creative\Project Design\TR Creative Design\Icon Design\Project Hiring\Icon Icons\Project - 001\002 - Beauty And Fashion\Send\3 - Flat\6 - Hair Dryer.png" inkscape:export-xdpi="768" inkscape:export-ydpi="768">
   <defs id="defs973" />
   <sodipodi:namedview id="base" pagecolor="#ffffff" bordercolor="#666666" borderopacity="1.0" inkscape:pageopacity="0.0" inkscape:pageshadow="2" inkscape:zoom="8.546875" inkscape:cx="32" inkscape:cy="32" inkscape:document-units="pt" inkscape:current-layer="layer1" showgrid="false" units="pt" inkscape:window-width="1366" inkscape:window-height="716" inkscape:window-x="-8" inkscape:window-y="-8" inkscape:window-maximized="1" inkscape:snap-bbox="true" inkscape:bbox-nodes="true" inkscape:snap-nodes="false" showguides="false">
      <inkscape:grid type="xygrid" id="grid1526" />
      <sodipodi:guide position="0.97013909,15.963209" orientation="56.666615,0" id="guide1528" inkscape:locked="false" />
      <sodipodi:guide position="0.97013909,0.97016731" orientation="0,56.666667" id="guide1530" inkscape:locked="false" />
      <sodipodi:guide position="15.963195,0.97016731" orientation="-56.666615,0" id="guide1532" inkscape:locked="false" />
      <sodipodi:guide position="15.963195,15.963209" orientation="0,-56.666667" id="guide1534" inkscape:locked="false" />
   </sodipodi:namedview>
   <metadata id="metadata976">
      <rdf:RDF>
         <cc:Work rdf:about="">
            <dc:format>image/svg+xml</dc:format>
            <dc:type rdf:resource="http://purl.org/dc/dcmitype/StillImage" />
            <dc:title></dc:title>
         </cc:Work>
      </rdf:RDF>
   </metadata>
   <g inkscape:label="Layer 1" inkscape:groupmode="layer" id="layer1" transform="translate(0,-280.06668)">
      <g transform="matrix(1.2291706,0,0,1.2291706,-80.497881,-41.668959)" style="display:inline;stroke-width:0.81355667" id="g2177">
         <path inkscape:export-ydpi="700.72992" inkscape:export-xdpi="700.72992" inkscape:connector-curvature="0" id="path1005" d="m 71.039062,270.74609 c -0.485069,0 -0.798915,0.28143 -0.929687,0.54297 -0.130772,0.26155 -0.126953,0.51563 -0.126953,0.51563 v 1.05664 a 0.2646485,0.2646485 0 1 0 0.529297,0 v -1.05664 c 0,0 0.0026,-0.14397 0.07031,-0.2793 0.06767,-0.13533 0.148351,-0.25 0.457031,-0.25 0.308681,0 0.39132,0.11467 0.458985,0.25 0.06767,0.13533 0.07031,0.2793 0.07031,0.2793 v 1.58203 c 0,0.35407 0.07119,0.67255 0.248047,0.92187 0.176854,0.24933 0.474512,0.40625 0.810547,0.40625 h 0.869141 c 0.539517,0 0.907414,-0.16908 1.085937,-0.45703 0.178523,-0.28795 0.16211,-0.6026 0.16211,-0.86719 a 0.2646485,0.2646485 0 1 0 -0.529297,0 c 0,0.26459 -0.01646,0.47898 -0.08398,0.5879 -0.06753,0.10891 -0.190085,0.20703 -0.634765,0.20703 h -0.869141 c -0.193132,0 -0.291176,-0.0599 -0.378906,-0.1836 -0.08773,-0.12368 -0.150391,-0.3347 -0.150391,-0.61523 v -1.58203 c 0,0 0.0038,-0.25408 -0.126953,-0.51563 -0.130772,-0.26154 -0.446571,-0.54297 -0.931641,-0.54297 z" style="color:#000000;font-style:normal;font-variant:normal;font-weight:normal;font-stretch:normal;font-size:medium;line-height:normal;font-family:sans-serif;font-variant-ligatures:normal;font-variant-position:normal;font-variant-caps:normal;font-variant-numeric:normal;font-variant-alternates:normal;font-feature-settings:normal;text-indent:0;text-align:start;text-decoration:none;text-decoration-line:none;text-decoration-style:solid;text-decoration-color:#000000;letter-spacing:normal;word-spacing:normal;text-transform:none;writing-mode:lr-tb;direction:ltr;text-orientation:mixed;dominant-baseline:auto;baseline-shift:baseline;text-anchor:start;white-space:normal;shape-padding:0;clip-rule:nonzero;display:inline;overflow:visible;visibility:visible;opacity:1;isolation:auto;mix-blend-mode:normal;color-interpolation:sRGB;color-interpolation-filters:linearRGB;solid-color:#000000;solid-opacity:1;vector-effect:none;fill:#717171;fill-opacity:1;fill-rule:nonzero;stroke:none;stroke-width:0.43050736;stroke-linecap:round;stroke-linejoin:round;stroke-miterlimit:4;stroke-dasharray:none;stroke-dashoffset:0;stroke-opacity:1;paint-order:markers fill stroke;color-rendering:auto;image-rendering:auto;shape-rendering:auto;text-rendering:auto;enable-background:accumulate" />
         <path inkscape:export-ydpi="700.72992" inkscape:export-xdpi="700.72992" inkscape:connector-curvature="0" id="path1580" d="m 71.818359,267.56445 a 0.26460996,0.26460996 0 0 0 -0.101562,0.50196 c 0,0 1.175781,0.58014 1.175781,1.875 v 2.65625 a 0.26460996,0.26460996 0 0 0 0.0039,0.043 c 0,0 0.04607,0.27169 0.25586,0.52344 0.209792,0.25175 0.6,0.49219 1.195312,0.49219 0.595313,0 0.98552,-0.24044 1.195313,-0.49219 0.209792,-0.25175 0.255859,-0.52344 0.255859,-0.52344 a 0.26460996,0.26460996 0 0 0 0.0039,-0.0254 l 0.263672,-3.78515 a 0.26460996,0.26460996 0 0 0 -0.201172,-0.27539 l -3.96875,-0.98242 a 0.26460996,0.26460996 0 0 0 -0.07813,-0.008 z" style="color:#000000;font-style:normal;font-variant:normal;font-weight:normal;font-stretch:normal;font-size:medium;line-height:normal;font-family:sans-serif;font-variant-ligatures:normal;font-variant-position:normal;font-variant-caps:normal;font-variant-numeric:normal;font-variant-alternates:normal;font-feature-settings:normal;text-indent:0;text-align:start;text-decoration:none;text-decoration-line:none;text-decoration-style:solid;text-decoration-color:#000000;letter-spacing:normal;word-spacing:normal;text-transform:none;writing-mode:lr-tb;direction:ltr;text-orientation:mixed;dominant-baseline:auto;baseline-shift:baseline;text-anchor:start;white-space:normal;shape-padding:0;clip-rule:nonzero;display:inline;overflow:visible;visibility:visible;opacity:1;isolation:auto;mix-blend-mode:normal;color-interpolation:sRGB;color-interpolation-filters:linearRGB;solid-color:#000000;solid-opacity:1;vector-effect:none;fill:#f2f2f2;fill-opacity:1;fill-rule:nonzero;stroke:none;stroke-width:0.43050736;stroke-linecap:round;stroke-linejoin:round;stroke-miterlimit:4;stroke-dasharray:none;stroke-dashoffset:0;stroke-opacity:1;paint-order:markers fill stroke;color-rendering:auto;image-rendering:auto;shape-rendering:auto;text-rendering:auto;enable-background:accumulate" />
         <path inkscape:export-ydpi="700.72992" inkscape:export-xdpi="700.72992" sodipodi:nodetypes="ccccccccscccccccccc" inkscape:connector-curvature="0" id="path1622" transform="matrix(0.26458333,0,0,0.26458333,0,284.3)" d="m 271.63666,-63.242097 c -1.15508,0 -1.56648,1.318324 -0.58199,1.886722 0,0 3.51683,1.744203 4.28906,5.580078 0.19388,0.08239 0.39028,0.161253 0.58398,0.244141 8.10549,2.171858 7.10306,3.719136 6.57032,11.369141 -0.004,0.03213 -0.009,0.06407 -0.0156,0.0957 0,0 -0.1739,1.027019 -0.9668,1.978515 -0.52675,0.632089 -1.36162,1.237666 -2.51757,1.578125 0.58425,0.171969 1.24445,0.28125 2,0.28125 2.24999,0 3.72466,-0.907879 4.51757,-1.859375 0.79292,-0.951496 0.9668,-1.978515 0.9668,-1.978515 0.007,-0.03163 0.0119,-0.06357 0.0156,-0.0957 l 0.66211,-9.517579 0.33398,-4.789062 c 0.0163,-0.234861 -0.0508,-0.467939 -0.18945,-0.658203 -0.0195,-0.02707 -0.0404,-0.05315 -0.0625,-0.07813 -0.13463,-0.150499 -0.31166,-0.25672 -0.50781,-0.304688 l -14.70771,-3.64054 z" style="color:#000000;font-style:normal;font-variant:normal;font-weight:normal;font-stretch:normal;font-size:medium;line-height:normal;font-family:sans-serif;font-variant-ligatures:normal;font-variant-position:normal;font-variant-caps:normal;font-variant-numeric:normal;font-variant-alternates:normal;font-feature-settings:normal;text-indent:0;text-align:start;text-decoration:none;text-decoration-line:none;text-decoration-style:solid;text-decoration-color:#000000;letter-spacing:normal;word-spacing:normal;text-transform:none;writing-mode:lr-tb;direction:ltr;text-orientation:mixed;dominant-baseline:auto;baseline-shift:baseline;text-anchor:start;white-space:normal;shape-padding:0;clip-rule:nonzero;display:inline;overflow:visible;visibility:visible;opacity:1;isolation:auto;mix-blend-mode:normal;color-interpolation:sRGB;color-interpolation-filters:linearRGB;solid-color:#000000;solid-opacity:1;vector-effect:none;fill:#d8d8d8;fill-opacity:1;fill-rule:nonzero;stroke:none;stroke-width:1.62711322;stroke-linecap:round;stroke-linejoin:round;stroke-miterlimit:4;stroke-dasharray:none;stroke-dashoffset:0;stroke-opacity:1;paint-order:markers fill stroke;color-rendering:auto;image-rendering:auto;shape-rendering:auto;text-rendering:auto;enable-background:accumulate" />
         <path inkscape:export-ydpi="700.72992" inkscape:export-xdpi="700.72992" inkscape:connector-curvature="0" id="path1506" d="m 66.570312,263.60156 a 0.26460996,0.26460996 0 0 0 -0.263671,0.26563 v 3.96875 a 0.26460996,0.26460996 0 0 0 0.291015,0.26172 l 2.646485,-0.26368 a 0.26460996,0.26460996 0 0 0 0.238281,-0.26367 v -3.43945 a 0.26460996,0.26460996 0 0 0 -0.238281,-0.26367 l -2.646485,-0.26367 a 0.26460996,0.26460996 0 0 0 -0.02734,-0.002 z" style="color:#000000;font-style:normal;font-variant:normal;font-weight:normal;font-stretch:normal;font-size:medium;line-height:normal;font-family:sans-serif;font-variant-ligatures:normal;font-variant-position:normal;font-variant-caps:normal;font-variant-numeric:normal;font-variant-alternates:normal;font-feature-settings:normal;text-indent:0;text-align:start;text-decoration:none;text-decoration-line:none;text-decoration-style:solid;text-decoration-color:#000000;letter-spacing:normal;word-spacing:normal;text-transform:none;writing-mode:lr-tb;direction:ltr;text-orientation:mixed;dominant-baseline:auto;baseline-shift:baseline;text-anchor:start;white-space:normal;shape-padding:0;clip-rule:nonzero;display:inline;overflow:visible;visibility:visible;opacity:1;isolation:auto;mix-blend-mode:normal;color-interpolation:sRGB;color-interpolation-filters:linearRGB;solid-color:#000000;solid-opacity:1;vector-effect:none;fill:#f2f2f2;fill-opacity:1;fill-rule:nonzero;stroke:none;stroke-width:0.43050736;stroke-linecap:round;stroke-linejoin:round;stroke-miterlimit:4;stroke-dasharray:none;stroke-dashoffset:0;stroke-opacity:1;paint-order:markers fill stroke;color-rendering:auto;image-rendering:auto;shape-rendering:auto;text-rendering:auto;enable-background:accumulate" />
         <path inkscape:export-ydpi="700.72992" inkscape:export-xdpi="700.72992" inkscape:connector-curvature="0" id="path1617" d="m 66.542925,263.59954 a 0.26460995,0.26460995 0 0 0 -0.264068,0.26562 v 0.87126 l 1.879471,0.18707 a 0.26460995,0.26460995 0 0 1 0.23823,0.26355 v 2.72645 l 0.820103,-0.0817 a 0.26460995,0.26460995 0 0 0 0.238231,-0.26355 v -3.43958 a 0.26460995,0.26460995 0 0 0 -0.238231,-0.26355 l -2.646349,-0.26355 a 0.26460995,0.26460995 0 0 0 -0.02739,-0.002 z" style="color:#000000;font-style:normal;font-variant:normal;font-weight:normal;font-stretch:normal;font-size:medium;line-height:normal;font-family:sans-serif;font-variant-ligatures:normal;font-variant-position:normal;font-variant-caps:normal;font-variant-numeric:normal;font-variant-alternates:normal;font-feature-settings:normal;text-indent:0;text-align:start;text-decoration:none;text-decoration-line:none;text-decoration-style:solid;text-decoration-color:#000000;letter-spacing:normal;word-spacing:normal;text-transform:none;writing-mode:lr-tb;direction:ltr;text-orientation:mixed;dominant-baseline:auto;baseline-shift:baseline;text-anchor:start;white-space:normal;shape-padding:0;clip-rule:nonzero;display:inline;overflow:visible;visibility:visible;opacity:1;isolation:auto;mix-blend-mode:normal;color-interpolation:sRGB;color-interpolation-filters:linearRGB;solid-color:#000000;solid-opacity:1;vector-effect:none;fill:#d8d8d8;fill-opacity:1;fill-rule:nonzero;stroke:none;stroke-width:0.43050736;stroke-linecap:round;stroke-linejoin:round;stroke-miterlimit:4;stroke-dasharray:none;stroke-dashoffset:0;stroke-opacity:1;paint-order:markers fill stroke;color-rendering:auto;image-rendering:auto;shape-rendering:auto;text-rendering:auto;enable-background:accumulate" />
         <path inkscape:export-ydpi="700.72992" inkscape:export-xdpi="700.72992" inkscape:connector-curvature="0" id="path1542" d="m 75.189453,262.5625 c -1.059893,0 -1.754371,0.30876 -2.373047,0.61719 -0.618675,0.30842 -1.160545,0.60969 -2.035156,0.6875 -0.116742,0.0104 -0.528833,0.0132 -0.884766,0.01 -0.355933,-0.003 -0.673828,-0.01 -0.673828,-0.01 a 0.26460978,0.26460978 0 0 0 -0.269531,0.26367 v 3.43945 a 0.26460978,0.26460978 0 0 0 0.251953,0.26367 c 0,0 1.305463,0.0594 1.605469,0.082 0.866241,0.0653 1.528721,0.34757 2.195312,0.63281 0.666592,0.28523 1.340472,0.57668 2.179688,0.58984 a 0.26460978,0.26460978 0 0 0 0.0039,0 c 1.812565,-5e-5 3.287064,-1.47454 3.287109,-3.28711 -4.5e-5,-1.81255 -1.474544,-3.28901 -3.287109,-3.28906 z" style="color:#000000;font-style:normal;font-variant:normal;font-weight:normal;font-stretch:normal;font-size:medium;line-height:normal;font-family:sans-serif;font-variant-ligatures:normal;font-variant-position:normal;font-variant-caps:normal;font-variant-numeric:normal;font-variant-alternates:normal;font-feature-settings:normal;text-indent:0;text-align:start;text-decoration:none;text-decoration-line:none;text-decoration-style:solid;text-decoration-color:#000000;letter-spacing:normal;word-spacing:normal;text-transform:none;writing-mode:lr-tb;direction:ltr;text-orientation:mixed;dominant-baseline:auto;baseline-shift:baseline;text-anchor:start;white-space:normal;shape-padding:0;clip-rule:nonzero;display:inline;overflow:visible;visibility:visible;opacity:1;isolation:auto;mix-blend-mode:normal;color-interpolation:sRGB;color-interpolation-filters:linearRGB;solid-color:#000000;solid-opacity:1;vector-effect:none;fill:#82b1ff;fill-opacity:1;fill-rule:nonzero;stroke:none;stroke-width:0.43050706;stroke-linecap:round;stroke-linejoin:round;stroke-miterlimit:4;stroke-dasharray:none;stroke-dashoffset:0;stroke-opacity:1;paint-order:markers fill stroke;color-rendering:auto;image-rendering:auto;shape-rendering:auto;text-rendering:auto;enable-background:accumulate" />
         <path inkscape:export-ydpi="700.72992" inkscape:export-xdpi="700.72992" sodipodi:nodetypes="ccccccccccccccccccccccccccccc" inkscape:connector-curvature="0" id="path1602" transform="matrix(0.26458333,0,0,0.26458333,0,284.3)" d="m 284.17969,-82.160156 v 0.002 c -3.05921,-0.04274 -6.41459,1.067583 -8.96887,2.333979 -2.3383,1.165682 -4.38579,2.303571 -7.69141,2.597657 -0.44123,0.03931 -2.00045,0.04845 -3.3457,0.03711 -0.7273,-0.0061 -0.90081,-0.01113 -1.37695,-0.01953 0.0266,-8.68e-4 0.0695,-0.001 0.0957,-0.002 -0.46236,-0.0076 -1.26367,-0.01758 -1.26367,-0.01758 v 0.002 h -0.002 c -0.0332,-3.56e-4 -0.0665,9.45e-4 -0.0996,0.0039 -0.0321,0.003 -0.064,0.0076 -0.0957,0.01367 -10e-4,-3e-6 -0.003,-3e-6 -0.004,0 -0.47239,0.0873 -0.81598,0.498132 -0.81835,0.978515 v 3.017578 c 0.4727,0.0076 0.7381,0.01588 1.56445,0.02344 1.34525,0.01134 2.90447,7.36e-4 3.3457,-0.03906 3.30562,-0.294047 5.3531,-1.431974 7.69141,-2.597656 2.3383,-1.16572 4.96286,-2.333984 8.96875,-2.333984 5.42479,0 10.39481,3.088505 10.42383,8.433594 -1.7e-4,6.165354 -4.51747,11.281218 -10.41407,12.246093 0.6349,0.09865 1.28902,0.167152 1.97657,0.177735 0.005,3.1e-5 0.009,3.1e-5 0.0137,0 7.22937,0 12.4238,-5.615438 12.4238,-12.416016 v -0.0078 -0.002 c -0.21975,-5.257393 -2.95884,-9.218205 -7.59185,-11.451266 -1.48585,-0.630271 -3.11937,-0.980421 -4.83203,-0.980468 z" style="color:#000000;font-style:normal;font-variant:normal;font-weight:normal;font-stretch:normal;font-size:medium;line-height:normal;font-family:sans-serif;font-variant-ligatures:normal;font-variant-position:normal;font-variant-caps:normal;font-variant-numeric:normal;font-variant-alternates:normal;font-feature-settings:normal;text-indent:0;text-align:start;text-decoration:none;text-decoration-line:none;text-decoration-style:solid;text-decoration-color:#000000;letter-spacing:normal;word-spacing:normal;text-transform:none;writing-mode:lr-tb;direction:ltr;text-orientation:mixed;dominant-baseline:auto;baseline-shift:baseline;text-anchor:start;white-space:normal;shape-padding:0;clip-rule:nonzero;display:inline;overflow:visible;visibility:visible;opacity:1;isolation:auto;mix-blend-mode:normal;color-interpolation:sRGB;color-interpolation-filters:linearRGB;solid-color:#000000;solid-opacity:1;vector-effect:none;fill:#648aff;fill-opacity:1;fill-rule:nonzero;stroke:none;stroke-width:1.62711322;stroke-linecap:round;stroke-linejoin:round;stroke-miterlimit:4;stroke-dasharray:none;stroke-dashoffset:0;stroke-opacity:1;paint-order:markers fill stroke;color-rendering:auto;image-rendering:auto;shape-rendering:auto;text-rendering:auto;enable-background:accumulate" />
         <path inkscape:export-ydpi="700.72992" inkscape:export-xdpi="700.72992" inkscape:connector-curvature="0" id="path1589" transform="matrix(0.26458333,0,0,0.26458333,0,284.3)" d="m 275.5,-53.228516 v 7.996094 h 4.99609 a 1.0001006,1.0001006 0 0 0 1.00586,-0.998047 v -6 a 1.0001006,1.0001006 0 0 0 -1.00586,-0.998047 z" style="color:#000000;font-style:normal;font-variant:normal;font-weight:normal;font-stretch:normal;font-size:medium;line-height:normal;font-family:sans-serif;font-variant-ligatures:normal;font-variant-position:normal;font-variant-caps:normal;font-variant-numeric:normal;font-variant-alternates:normal;font-feature-settings:normal;text-indent:0;text-align:start;text-decoration:none;text-decoration-line:none;text-decoration-style:solid;text-decoration-color:#000000;letter-spacing:normal;word-spacing:normal;text-transform:none;writing-mode:lr-tb;direction:ltr;text-orientation:mixed;dominant-baseline:auto;baseline-shift:baseline;text-anchor:start;white-space:normal;shape-padding:0;clip-rule:nonzero;display:inline;overflow:visible;visibility:visible;opacity:1;isolation:auto;mix-blend-mode:normal;color-interpolation:sRGB;color-interpolation-filters:linearRGB;solid-color:#000000;solid-opacity:1;vector-effect:none;fill:#717171;fill-opacity:1;fill-rule:nonzero;stroke:none;stroke-width:1.6271143;stroke-linecap:round;stroke-linejoin:round;stroke-miterlimit:4;stroke-dasharray:none;stroke-dashoffset:0;stroke-opacity:1;paint-order:markers fill stroke;color-rendering:auto;image-rendering:auto;shape-rendering:auto;text-rendering:auto;enable-background:accumulate" />
         <path inkscape:export-ydpi="700.72992" inkscape:export-xdpi="700.72992" inkscape:connector-curvature="0" id="path1015" transform="matrix(0.26458333,0,0,0.26458333,0,284.3)" d="m 284.17969,-82.158203 c -0.19976,0 -0.3812,0.01583 -0.57422,0.02148 v 6.423828 a 1.0002463,1.0002463 0 1 0 2,0 v -6.357421 c -0.46825,-0.05385 -0.94336,-0.08788 -1.42578,-0.08789 z" style="color:#000000;font-style:normal;font-variant:normal;font-weight:normal;font-stretch:normal;font-size:medium;line-height:normal;font-family:sans-serif;font-variant-ligatures:normal;font-variant-position:normal;font-variant-caps:normal;font-variant-numeric:normal;font-variant-alternates:normal;font-feature-settings:normal;text-indent:0;text-align:start;text-decoration:none;text-decoration-line:none;text-decoration-style:solid;text-decoration-color:#000000;letter-spacing:normal;word-spacing:normal;text-transform:none;writing-mode:lr-tb;direction:ltr;text-orientation:mixed;dominant-baseline:auto;baseline-shift:baseline;text-anchor:start;white-space:normal;shape-padding:0;clip-rule:nonzero;display:inline;overflow:visible;visibility:visible;opacity:1;isolation:auto;mix-blend-mode:normal;color-interpolation:sRGB;color-interpolation-filters:linearRGB;solid-color:#000000;solid-opacity:1;vector-effect:none;fill:#717171;fill-opacity:1;fill-rule:nonzero;stroke:none;stroke-width:1.6271143;stroke-linecap:round;stroke-linejoin:round;stroke-miterlimit:4;stroke-dasharray:none;stroke-dashoffset:0;stroke-opacity:1;paint-order:markers fill stroke;color-rendering:auto;image-rendering:auto;shape-rendering:auto;text-rendering:auto;enable-background:accumulate" />
         <path inkscape:export-ydpi="700.72992" inkscape:export-xdpi="700.72992" inkscape:connector-curvature="0" id="path1017" transform="matrix(0.26458333,0,0,0.26458333,0,284.3)" d="m 284.59375,-64.744141 a 1.0001006,1.0001006 0 0 0 -0.98828,1.011719 v 6.398438 c 0.18682,0.01041 0.36932,0.02825 0.56055,0.03125 a 1.0001,1.0001 0 0 0 0.0137,0 c 0.48242,-1.4e-5 0.95753,-0.03411 1.42578,-0.08789 v -6.341797 a 1.0001006,1.0001006 0 0 0 -1.01172,-1.011719 z" style="color:#000000;font-style:normal;font-variant:normal;font-weight:normal;font-stretch:normal;font-size:medium;line-height:normal;font-family:sans-serif;font-variant-ligatures:normal;font-variant-position:normal;font-variant-caps:normal;font-variant-numeric:normal;font-variant-alternates:normal;font-feature-settings:normal;text-indent:0;text-align:start;text-decoration:none;text-decoration-line:none;text-decoration-style:solid;text-decoration-color:#000000;letter-spacing:normal;word-spacing:normal;text-transform:none;writing-mode:lr-tb;direction:ltr;text-orientation:mixed;dominant-baseline:auto;baseline-shift:baseline;text-anchor:start;white-space:normal;shape-padding:0;clip-rule:nonzero;display:inline;overflow:visible;visibility:visible;opacity:1;isolation:auto;mix-blend-mode:normal;color-interpolation:sRGB;color-interpolation-filters:linearRGB;solid-color:#000000;solid-opacity:1;vector-effect:none;fill:#717171;fill-opacity:1;fill-rule:nonzero;stroke:none;stroke-width:1.6271143;stroke-linecap:round;stroke-linejoin:round;stroke-miterlimit:4;stroke-dasharray:none;stroke-dashoffset:0;stroke-opacity:1;paint-order:markers fill stroke;color-rendering:auto;image-rendering:auto;shape-rendering:auto;text-rendering:auto;enable-background:accumulate" />
         <path inkscape:export-ydpi="700.72992" inkscape:export-xdpi="700.72992" inkscape:connector-curvature="0" id="path1549" d="m 75.302734,263.99805 c -1.019743,0 -1.851562,0.83377 -1.851562,1.85351 0,1.01975 0.831819,1.85156 1.851562,1.85156 1.019744,0 1.851563,-0.83181 1.851563,-1.85156 0,-1.01974 -0.831819,-1.85351 -1.851563,-1.85351 z" style="color:#000000;font-style:normal;font-variant:normal;font-weight:normal;font-stretch:normal;font-size:medium;line-height:normal;font-family:sans-serif;font-variant-ligatures:normal;font-variant-position:normal;font-variant-caps:normal;font-variant-numeric:normal;font-variant-alternates:normal;font-feature-settings:normal;text-indent:0;text-align:start;text-decoration:none;text-decoration-line:none;text-decoration-style:solid;text-decoration-color:#000000;letter-spacing:normal;word-spacing:normal;text-transform:none;writing-mode:lr-tb;direction:ltr;text-orientation:mixed;dominant-baseline:auto;baseline-shift:baseline;text-anchor:start;white-space:normal;shape-padding:0;clip-rule:nonzero;display:inline;overflow:visible;visibility:visible;opacity:1;isolation:auto;mix-blend-mode:normal;color-interpolation:sRGB;color-interpolation-filters:linearRGB;solid-color:#000000;solid-opacity:1;vector-effect:none;fill:#717171;fill-opacity:1;fill-rule:nonzero;stroke:none;stroke-width:0.43050736;stroke-linecap:round;stroke-linejoin:round;stroke-miterlimit:4;stroke-dasharray:none;stroke-dashoffset:0;stroke-opacity:1;paint-order:markers fill stroke;color-rendering:auto;image-rendering:auto;shape-rendering:auto;text-rendering:auto;enable-background:accumulate" />
         <path inkscape:export-ydpi="700.72992" inkscape:export-xdpi="700.72992" inkscape:connector-curvature="0" id="path1007" d="m 75.296875,264.92188 a 0.26460996,0.26460996 0 0 0 -0.181641,0.0801 l -0.529296,0.5293 a 0.26516504,0.26516504 0 1 0 0.375,0.375 l 0.529296,-0.5293 a 0.26460996,0.26460996 0 0 0 -0.193359,-0.45507 z" style="color:#000000;font-style:normal;font-variant:normal;font-weight:normal;font-stretch:normal;font-size:medium;line-height:normal;font-family:sans-serif;font-variant-ligatures:normal;font-variant-position:normal;font-variant-caps:normal;font-variant-numeric:normal;font-variant-alternates:normal;font-feature-settings:normal;text-indent:0;text-align:start;text-decoration:none;text-decoration-line:none;text-decoration-style:solid;text-decoration-color:#000000;letter-spacing:normal;word-spacing:normal;text-transform:none;writing-mode:lr-tb;direction:ltr;text-orientation:mixed;dominant-baseline:auto;baseline-shift:baseline;text-anchor:start;white-space:normal;shape-padding:0;clip-rule:nonzero;display:inline;overflow:visible;visibility:visible;opacity:1;isolation:auto;mix-blend-mode:normal;color-interpolation:sRGB;color-interpolation-filters:linearRGB;solid-color:#000000;solid-opacity:1;vector-effect:none;fill:#f2f2f2;fill-opacity:1;fill-rule:nonzero;stroke:none;stroke-width:0.43050736;stroke-linecap:round;stroke-linejoin:round;stroke-miterlimit:4;stroke-dasharray:none;stroke-dashoffset:0;stroke-opacity:1;paint-order:markers fill stroke;color-rendering:auto;image-rendering:auto;shape-rendering:auto;text-rendering:auto;enable-background:accumulate" />
         <path inkscape:export-ydpi="700.72992" inkscape:export-xdpi="700.72992" inkscape:connector-curvature="0" id="path1009" d="m 75.826172,265.71484 a 0.26460996,0.26460996 0 0 0 -0.181641,0.0801 l -0.529297,0.5293 a 0.26516504,0.26516504 0 1 0 0.375,0.375 l 0.529297,-0.5293 a 0.26460996,0.26460996 0 0 0 -0.193359,-0.45508 z" style="color:#000000;font-style:normal;font-variant:normal;font-weight:normal;font-stretch:normal;font-size:medium;line-height:normal;font-family:sans-serif;font-variant-ligatures:normal;font-variant-position:normal;font-variant-caps:normal;font-variant-numeric:normal;font-variant-alternates:normal;font-feature-settings:normal;text-indent:0;text-align:start;text-decoration:none;text-decoration-line:none;text-decoration-style:solid;text-decoration-color:#000000;letter-spacing:normal;word-spacing:normal;text-transform:none;writing-mode:lr-tb;direction:ltr;text-orientation:mixed;dominant-baseline:auto;baseline-shift:baseline;text-anchor:start;white-space:normal;shape-padding:0;clip-rule:nonzero;display:inline;overflow:visible;visibility:visible;opacity:1;isolation:auto;mix-blend-mode:normal;color-interpolation:sRGB;color-interpolation-filters:linearRGB;solid-color:#000000;solid-opacity:1;vector-effect:none;fill:#f2f2f2;fill-opacity:1;fill-rule:nonzero;stroke:none;stroke-width:0.43050736;stroke-linecap:round;stroke-linejoin:round;stroke-miterlimit:4;stroke-dasharray:none;stroke-dashoffset:0;stroke-opacity:1;paint-order:markers fill stroke;color-rendering:auto;image-rendering:auto;shape-rendering:auto;text-rendering:auto;enable-background:accumulate" />
         <path inkscape:export-ydpi="700.72992" inkscape:export-xdpi="700.72992" inkscape:connector-curvature="0" id="path1034" transform="matrix(0.26458333,0,0,0.26458333,0,284.3)" d="m 250.60742,-74.228516 v 2 h 4.00196 a 1.0002331,1.0002331 0 1 0 0,-2 z m 0,3.498047 v 2 h 6.00196 a 1.0002331,1.0002331 0 0 0 0,-2 z m 0,3.5 v 2 h 4.00196 a 1.000252,1.000252 0 1 0 0,-2 z" style="color:#000000;font-style:normal;font-variant:normal;font-weight:normal;font-stretch:normal;font-size:medium;line-height:normal;font-family:sans-serif;font-variant-ligatures:normal;font-variant-position:normal;font-variant-caps:normal;font-variant-numeric:normal;font-variant-alternates:normal;font-feature-settings:normal;text-indent:0;text-align:start;text-decoration:none;text-decoration-line:none;text-decoration-style:solid;text-decoration-color:#000000;letter-spacing:normal;word-spacing:normal;text-transform:none;writing-mode:lr-tb;direction:ltr;text-orientation:mixed;dominant-baseline:auto;baseline-shift:baseline;text-anchor:start;white-space:normal;shape-padding:0;clip-rule:nonzero;display:inline;overflow:visible;visibility:visible;opacity:1;isolation:auto;mix-blend-mode:normal;color-interpolation:sRGB;color-interpolation-filters:linearRGB;solid-color:#000000;solid-opacity:1;vector-effect:none;fill:#717171;fill-opacity:1;fill-rule:nonzero;stroke:none;stroke-width:1.6271143;stroke-linecap:round;stroke-linejoin:round;stroke-miterlimit:4;stroke-dasharray:none;stroke-dashoffset:0;stroke-opacity:1;paint-order:markers fill stroke;color-rendering:auto;image-rendering:auto;shape-rendering:auto;text-rendering:auto;enable-background:accumulate" />
         <path inkscape:export-ydpi="700.72992" inkscape:export-xdpi="700.72992" inkscape:connector-curvature="0" id="path1596" d="m 75.302732,263.99788 c -0.644451,0 -1.213307,0.33363 -1.545127,0.83612 0.292103,-0.19319 0.641065,-0.30695 1.015961,-0.30695 1.019743,0 1.851564,0.83389 1.851564,1.85363 0,0.37504 -0.112934,0.72431 -0.305924,1.01648 0.502258,-0.33176 0.835091,-0.90093 0.835091,-1.54565 0,-1.01974 -0.831821,-1.85363 -1.851565,-1.85363 z" style="color:#000000;font-style:normal;font-variant:normal;font-weight:normal;font-stretch:normal;font-size:medium;line-height:normal;font-family:sans-serif;font-variant-ligatures:normal;font-variant-position:normal;font-variant-caps:normal;font-variant-numeric:normal;font-variant-alternates:normal;font-feature-settings:normal;text-indent:0;text-align:start;text-decoration:none;text-decoration-line:none;text-decoration-style:solid;text-decoration-color:#000000;letter-spacing:normal;word-spacing:normal;text-transform:none;writing-mode:lr-tb;direction:ltr;text-orientation:mixed;dominant-baseline:auto;baseline-shift:baseline;text-anchor:start;white-space:normal;shape-padding:0;clip-rule:nonzero;display:inline;overflow:visible;visibility:visible;opacity:1;isolation:auto;mix-blend-mode:normal;color-interpolation:sRGB;color-interpolation-filters:linearRGB;solid-color:#000000;solid-opacity:1;vector-effect:none;fill:#515151;fill-opacity:1;fill-rule:nonzero;stroke:none;stroke-width:0.43050736;stroke-linecap:round;stroke-linejoin:round;stroke-miterlimit:4;stroke-dasharray:none;stroke-dashoffset:0;stroke-opacity:1;paint-order:markers fill stroke;color-rendering:auto;image-rendering:auto;shape-rendering:auto;text-rendering:auto;enable-background:accumulate" />
         <path inkscape:export-ydpi="700.72992" inkscape:export-xdpi="700.72992" inkscape:connector-curvature="0" id="path1634" d="m 72.892707,270.21662 v 0.52917 h 0.792716 a 0.26460995,0.26460995 0 0 1 0.266134,0.26407 v 1.3224 h 0.263033 a 0.26460995,0.26460995 0 0 0 0.266133,-0.26407 v -1.5875 a 0.26460995,0.26460995 0 0 0 -0.266133,-0.26407 z" style="color:#000000;font-style:normal;font-variant:normal;font-weight:normal;font-stretch:normal;font-size:medium;line-height:normal;font-family:sans-serif;font-variant-ligatures:normal;font-variant-position:normal;font-variant-caps:normal;font-variant-numeric:normal;font-variant-alternates:normal;font-feature-settings:normal;text-indent:0;text-align:start;text-decoration:none;text-decoration-line:none;text-decoration-style:solid;text-decoration-color:#000000;letter-spacing:normal;word-spacing:normal;text-transform:none;writing-mode:lr-tb;direction:ltr;text-orientation:mixed;dominant-baseline:auto;baseline-shift:baseline;text-anchor:start;white-space:normal;shape-padding:0;clip-rule:nonzero;display:inline;overflow:visible;visibility:visible;opacity:1;isolation:auto;mix-blend-mode:normal;color-interpolation:sRGB;color-interpolation-filters:linearRGB;solid-color:#000000;solid-opacity:1;vector-effect:none;fill:#515151;fill-opacity:1;fill-rule:nonzero;stroke:none;stroke-width:0.43050736;stroke-linecap:round;stroke-linejoin:round;stroke-miterlimit:4;stroke-dasharray:none;stroke-dashoffset:0;stroke-opacity:1;paint-order:markers fill stroke;color-rendering:auto;image-rendering:auto;shape-rendering:auto;text-rendering:auto;enable-background:accumulate" />
      </g>
   </g>
</svg>
