<?xml version="1.0" encoding="iso-8859-1"?>
<!-- Generator: Adobe Illustrator 17.1.0, SVG Export Plug-In . SVG Version: 6.00 Build 0)  -->
<!DOCTYPE svg PUBLIC "-//W3C//DTD SVG 1.0//EN" "http://www.w3.org/TR/2001/REC-SVG-20010904/DTD/svg10.dtd">
<svg version="1.0"
	xmlns="http://www.w3.org/2000/svg"
	xmlns:xlink="http://www.w3.org/1999/xlink" x="0px" y="0px" width="48px" height="48px" viewBox="0 0 110 110" style="enable-background:new 0 0 110 110;" xml:space="preserve">
	<g id="Artboard" style="display:none;">

		<rect x="-689.5" y="-176.5" style="display:inline;fill:#808080;stroke:#000000;stroke-miterlimit:10;" width="1362" height="598"/>
	</g>
	<g id="R-Multicolor" style="display:none;">
		<g style="display:inline;">
			<circle style="fill:#FABC3D;" cx="54.976" cy="55.024" r="55"/>
		</g>
		<g style="display:inline;">
			<path style="fill:#3E3E3F;" d="M83,76c-0.615-1.333-1.698-2.394-3.043-2.982L65,69v-6l-5.105,3.995
			C59.326,67.634,58.511,68,57.655,68H55h-2.655c-0.856,0-1.671-0.366-2.24-1.005L45,63v6l-14.957,4.018
			C28.698,73.606,27.615,74.667,27,76l-4,11h32h32L83,76z"/>
			<path style="fill:#FBC8C8;" d="M72,47.258c0-1.111-1-2.222-2-2.222s-1,1.111-1,1.111v-1.111c-0.018-9-1.024-15-14-15
			s-13.982,6-14,15V53l4,10l5.105,3.995C50.674,67.634,51.489,68,52.345,68H55h2.655c0.856,0,1.671-0.366,2.24-1.005L65,63
			l3.193-7.982C71.039,54.827,72,50.517,72,47.258z"/>
			<path style="fill:#FBD7D7;" d="M41,45v1.111c0,0,0-1.111-1-1.111s-2,1.111-2,2.222c0,3.259,0.961,7.568,3.807,7.76L45,62.964
			l5.105,3.995c0.569,0.64,1.384,1.005,2.24,1.005H55V30C42.024,30,41.018,36,41,45z"/>
			<path style="fill:#F37A10;" d="M69.268,36.391C71.997,32.495,72,28,72,28H55h-6.866c-2.58,0-5.038,1.099-6.759,3.021
			c-1.721,1.922-2.542,4.486-2.256,7.051l2.896,17.467L45,63l5.105,3.995C50.674,67.634,51.489,68,52.345,68H55h2.655
			c0.856,0,1.671-0.366,2.24-1.005L65,63l2.984-7.461l2.288-16.629c0.175-0.699,0.018-1.441-0.426-2.009
			C69.685,36.694,69.483,36.53,69.268,36.391z M68,45.036l-2,10v0.031l-3,6h-1l-1.316-3.949c-0.408-1.225-1.555-2.051-2.846-2.051
			H55h-2.838c-1.291,0-2.438,0.826-2.846,2.051L48,61.067h-1l-3-6v-0.031l-2-10V36c0,0,0.011,5.447,13,5.958
			C55.638,41.983,56.297,42,57,42c5.351,0,8.786-1.784,11-4.076V45.036z"/>
			<path style="fill:#F99134;" d="M42.016,55.539L45,63l5.105,3.995C50.674,67.634,51.489,68,52.345,68H55V55.067h-2.838
			c-1.291,0-2.438,0.826-2.846,2.051L48,61.067h-1l-3-6v-0.031l-2-10V36c0,0,0.011,5.447,13,5.958V28h-6.866
			c-2.58,0-5.038,1.099-6.759,3.021c-1.721,1.922-2.542,4.486-2.256,7.051"/>
			<g>
				<path style="fill:#FBD7D7;" d="M51,58h8c0,0,0,3-4,3S51,58,51,58z"/>
			</g>
			<path style="fill:#3E3E3F;" d="M61.5,42.625c-2.438,0-4.875,1.625-4.875,1.625H55h-1.625c0,0-2.438-1.625-4.875-1.625
			c-4.063,0-6.5,1.625-6.5,1.625v0.813h0.812c0,4.875,1.625,7.312,5.857,7.312c4.231,0,5.112-4.062,5.112-5.189
			c0-1.127,1.219-1.311,1.219-1.311s1.219,0.184,1.219,1.311c0,1.127,0.88,5.189,5.112,5.189c4.232,0,5.857-2.437,5.857-7.312H68
			V44.25C68,44.25,65.562,42.625,61.5,42.625z"/>
			<g>
				<g>
					<path style="fill:#9E9FA0;" d="M48.5,44.25c-2.244,0-4.062,1.006-4.062,3.25c0,0.908,0.301,1.743,0.804,2.419l5.318-5.318
					C49.955,44.366,49.253,44.25,48.5,44.25z"/>
				</g>
			</g>
			<g>
				<g>
					<path style="fill:#9E9FA0;" d="M61.579,44.25c-2.244,0-4.062,1.006-4.062,3.25c0,0.908,0.301,1.743,0.804,2.419l5.318-5.318
					C63.034,44.366,62.331,44.25,61.579,44.25z"/>
				</g>
			</g>
		</g>
	</g>
	<g id="Multicolor">
		<g>
			<path style="fill:#3E3E3F;" d="M83,76c-0.615-1.333-1.698-2.394-3.043-2.982L65,69v-6l-5.105,3.995
			C59.326,67.634,58.511,68,57.655,68H55h-2.655c-0.856,0-1.671-0.366-2.24-1.005L45,63v6l-14.957,4.018
			C28.698,73.606,27.615,74.667,27,76l-4,11h32h32L83,76z"/>
			<path style="fill:#FBC8C8;" d="M72,47.258c0-1.111-1-2.222-2-2.222s-1,1.111-1,1.111v-1.111c-0.018-9-1.024-15-14-15
			s-13.982,6-14,15V53l4,10l5.105,3.995C50.674,67.634,51.489,68,52.345,68H55h2.655c0.856,0,1.671-0.366,2.24-1.005L65,63
			l3.193-7.982C71.039,54.827,72,50.517,72,47.258z"/>
			<path style="fill:#FBD7D7;" d="M41,45v1.111c0,0,0-1.111-1-1.111s-2,1.111-2,2.222c0,3.259,0.961,7.568,3.807,7.76L45,62.964
			l5.105,3.995c0.569,0.64,1.384,1.005,2.24,1.005H55V30C42.024,30,41.018,36,41,45z"/>
			<path style="fill:#F37A10;" d="M69.268,36.391C71.997,32.495,72,28,72,28H55h-6.866c-2.58,0-5.038,1.099-6.759,3.021
			c-1.721,1.922-2.542,4.486-2.256,7.051l2.896,17.467L45,63l5.105,3.995C50.674,67.634,51.489,68,52.345,68H55h2.655
			c0.856,0,1.671-0.366,2.24-1.005L65,63l2.984-7.461l2.288-16.629c0.175-0.699,0.018-1.441-0.426-2.009
			C69.685,36.694,69.483,36.53,69.268,36.391z M68,45.036l-2,10v0.031l-3,6h-1l-1.316-3.949c-0.408-1.225-1.555-2.051-2.846-2.051
			H55h-2.838c-1.291,0-2.438,0.826-2.846,2.051L48,61.067h-1l-3-6v-0.031l-2-10V36c0,0,0.011,5.447,13,5.958
			C55.638,41.983,56.297,42,57,42c5.351,0,8.786-1.784,11-4.076V45.036z"/>
			<path style="fill:#F99134;" d="M42.016,55.539L45,63l5.105,3.995C50.674,67.634,51.489,68,52.345,68H55V55.067h-2.838
			c-1.291,0-2.438,0.826-2.846,2.051L48,61.067h-1l-3-6v-0.031l-2-10V36c0,0,0.011,5.447,13,5.958V28h-6.866
			c-2.58,0-5.038,1.099-6.759,3.021c-1.721,1.922-2.542,4.486-2.256,7.051"/>
			<g>
				<path style="fill:#FBD7D7;" d="M51,58h8c0,0,0,3-4,3S51,58,51,58z"/>
			</g>
			<path style="fill:#3E3E3F;" d="M61.5,42.625c-2.438,0-4.875,1.625-4.875,1.625H55h-1.625c0,0-2.438-1.625-4.875-1.625
			c-4.063,0-6.5,1.625-6.5,1.625v0.813h0.812c0,4.875,1.625,7.312,5.857,7.312c4.231,0,5.112-4.062,5.112-5.189
			c0-1.127,1.219-1.311,1.219-1.311s1.219,0.184,1.219,1.311c0,1.127,0.88,5.189,5.112,5.189c4.232,0,5.857-2.437,5.857-7.312H68
			V44.25C68,44.25,65.562,42.625,61.5,42.625z"/>
			<g>
				<g>
					<path style="fill:#9E9FA0;" d="M48.5,44.25c-2.244,0-4.062,1.006-4.062,3.25c0,0.908,0.301,1.743,0.804,2.419l5.318-5.318
					C49.955,44.366,49.253,44.25,48.5,44.25z"/>
				</g>
			</g>
			<g>
				<g>
					<path style="fill:#9E9FA0;" d="M61.579,44.25c-2.244,0-4.062,1.006-4.062,3.25c0,0.908,0.301,1.743,0.804,2.419l5.318-5.318
					C63.034,44.366,62.331,44.25,61.579,44.25z"/>
				</g>
			</g>
		</g>
	</g>
	<g id="Blue" style="display:none;">
		<g style="display:inline;">
			<path style="fill:#0C333D;" d="M83,76c-0.615-1.334-1.698-2.394-3.044-2.982L65,69v-6l-5.106,3.995
			C59.326,67.634,58.511,68,57.655,68H55h-2.655c-0.856,0-1.671-0.366-2.24-1.005L45,63v6l-14.958,4.018
			C28.698,73.606,27.615,74.666,27,76l-4,11h32h32L83,76z"/>
			<path style="fill:#E1F5FA;" d="M72,47.258c0-1.111-1-2.222-2-2.222s-1,1.111-1,1.111v-1.111c-0.018-9-1.024-15-14-15
			c-12.976,0-13.982,6-14,15V53l4,10l5.105,3.995C50.674,67.634,51.489,68,52.345,68H55h2.655c0.856,0,1.671-0.366,2.24-1.005L65,63
			l3.193-7.982C71.039,54.827,72,50.517,72,47.258z"/>
			<path style="fill:#FFFFFF;" d="M41,45v1.111c0,0,0-1.111-1-1.111s-2,1.111-2,2.222c0,3.259,0.961,7.568,3.807,7.76L45,62.964
			l5.105,3.995c0.569,0.64,1.384,1.005,2.24,1.005H55V30C42.024,30,41.018,36,41,45z"/>
			<path style="fill:#0F6175;" d="M69.268,36.391C71.997,32.495,72,28,72,28H55h-6.866c-2.58,0-5.038,1.099-6.759,3.022
			c-1.721,1.922-2.542,4.486-2.256,7.051l2.897,17.467L45,63l5.104,3.995C50.674,67.634,51.489,68,52.345,68H55h2.655
			c0.856,0,1.671-0.366,2.24-1.005L65,63l2.984-7.461l2.288-16.629c0.175-0.699,0.018-1.441-0.426-2.009
			C69.685,36.694,69.483,36.53,69.268,36.391z M68,45.036l-2,10v0.031l-3,6h-1l-1.316-3.949c-0.408-1.225-1.555-2.051-2.846-2.051
			H55h-2.838c-1.291,0-2.438,0.826-2.846,2.051L48,61.067h-1l-3-6v-0.031l-2-10V36c0,0,0.011,5.447,13,5.958
			C55.638,41.983,56.297,42,57,42c5.351,0,8.786-1.784,11-4.076V45.036z"/>
			<path style="fill:#33899E;" d="M42.016,55.539L45,63l5.104,3.995C50.674,67.634,51.489,68,52.345,68H55V55.067h-2.838
			c-1.291,0-2.438,0.826-2.846,2.051L48,61.067h-1l-3-6v-0.031l-2-10V36c0,0,0.011,5.447,13,5.958V28h-6.866
			c-2.58,0-5.038,1.099-6.759,3.022c-1.721,1.922-2.542,4.486-2.256,7.051"/>
			<g>
				<path style="fill:#E1F5FA;" d="M51,58h8c0,0,0,3-4,3S51,58,51,58z"/>
			</g>
			<path style="fill:#0C333D;" d="M61.5,42.625c-2.438,0-4.876,1.625-4.876,1.625H55h-1.626c0,0-2.437-1.625-4.874-1.625
			c-4.063,0-6.5,1.625-6.5,1.625v0.813h0.812c0,4.875,1.625,7.312,5.857,7.312c4.232,0,5.112-4.062,5.112-5.189
			c0-1.127,1.219-1.311,1.219-1.311s1.219,0.184,1.219,1.311c0,1.127,0.88,5.189,5.112,5.189c4.232,0,5.857-2.437,5.857-7.312H68
			V44.25C68,44.25,65.562,42.625,61.5,42.625z"/>
			<g>
				<g>
					<path style="fill:#33899E;" d="M48.5,44.25c-2.244,0-4.063,1.006-4.063,3.25c0,0.908,0.301,1.743,0.804,2.419l5.318-5.318
					C49.955,44.366,49.253,44.25,48.5,44.25z"/>
				</g>
			</g>
			<g>
				<g>
					<path style="fill:#33899E;" d="M61.579,44.25c-2.244,0-4.062,1.006-4.062,3.25c0,0.908,0.301,1.743,0.804,2.419l5.318-5.318
					C63.034,44.366,62.331,44.25,61.579,44.25z"/>
				</g>
			</g>
		</g>
	</g>
	<g id="R-Blue" style="display:none;">
		<g style="display:inline;">
			<circle style="fill:#81D2EB;" cx="54.976" cy="55.024" r="55"/>
		</g>
		<g style="display:inline;">
			<path style="fill:#0C333D;" d="M83,76c-0.615-1.334-1.698-2.394-3.044-2.982L65,69v-6l-5.106,3.995
			C59.326,67.634,58.511,68,57.655,68H55h-2.655c-0.856,0-1.671-0.366-2.24-1.005L45,63v6l-14.958,4.018
			C28.698,73.606,27.615,74.666,27,76l-4,11h32h32L83,76z"/>
			<path style="fill:#E1F5FA;" d="M72,47.258c0-1.111-1-2.222-2-2.222s-1,1.111-1,1.111v-1.111c-0.018-9-1.024-15-14-15
			c-12.976,0-13.982,6-14,15V53l4,10l5.105,3.995C50.674,67.634,51.489,68,52.345,68H55h2.655c0.856,0,1.671-0.366,2.24-1.005L65,63
			l3.193-7.982C71.039,54.827,72,50.517,72,47.258z"/>
			<path style="fill:#FFFFFF;" d="M41,45v1.111c0,0,0-1.111-1-1.111s-2,1.111-2,2.222c0,3.259,0.961,7.568,3.807,7.76L45,62.964
			l5.105,3.995c0.569,0.64,1.384,1.005,2.24,1.005H55V30C42.024,30,41.018,36,41,45z"/>
			<path style="fill:#0F6175;" d="M69.268,36.391C71.997,32.495,72,28,72,28H55h-6.866c-2.58,0-5.038,1.099-6.759,3.022
			c-1.721,1.922-2.542,4.486-2.256,7.051l2.897,17.467L45,63l5.104,3.995C50.674,67.634,51.489,68,52.345,68H55h2.655
			c0.856,0,1.671-0.366,2.24-1.005L65,63l2.984-7.461l2.288-16.629c0.175-0.699,0.018-1.441-0.426-2.009
			C69.685,36.694,69.483,36.53,69.268,36.391z M68,45.036l-2,10v0.031l-3,6h-1l-1.316-3.949c-0.408-1.225-1.555-2.051-2.846-2.051
			H55h-2.838c-1.291,0-2.438,0.826-2.846,2.051L48,61.067h-1l-3-6v-0.031l-2-10V36c0,0,0.011,5.447,13,5.958
			C55.638,41.983,56.297,42,57,42c5.351,0,8.786-1.784,11-4.076V45.036z"/>
			<path style="fill:#33899E;" d="M42.016,55.539L45,63l5.104,3.995C50.674,67.634,51.489,68,52.345,68H55V55.067h-2.838
			c-1.291,0-2.438,0.826-2.846,2.051L48,61.067h-1l-3-6v-0.031l-2-10V36c0,0,0.011,5.447,13,5.958V28h-6.866
			c-2.58,0-5.038,1.099-6.759,3.022c-1.721,1.922-2.542,4.486-2.256,7.051"/>
			<g>
				<path style="fill:#E1F5FA;" d="M51,58h8c0,0,0,3-4,3S51,58,51,58z"/>
			</g>
			<path style="fill:#0C333D;" d="M61.5,42.625c-2.438,0-4.876,1.625-4.876,1.625H55h-1.626c0,0-2.437-1.625-4.874-1.625
			c-4.063,0-6.5,1.625-6.5,1.625v0.813h0.812c0,4.875,1.625,7.312,5.857,7.312c4.232,0,5.112-4.062,5.112-5.189
			c0-1.127,1.219-1.311,1.219-1.311s1.219,0.184,1.219,1.311c0,1.127,0.88,5.189,5.112,5.189c4.232,0,5.857-2.437,5.857-7.312H68
			V44.25C68,44.25,65.562,42.625,61.5,42.625z"/>
			<g>
				<g>
					<path style="fill:#33899E;" d="M48.5,44.25c-2.244,0-4.063,1.006-4.063,3.25c0,0.908,0.301,1.743,0.804,2.419l5.318-5.318
					C49.955,44.366,49.253,44.25,48.5,44.25z"/>
				</g>
			</g>
			<g>
				<g>
					<path style="fill:#33899E;" d="M61.579,44.25c-2.244,0-4.062,1.006-4.062,3.25c0,0.908,0.301,1.743,0.804,2.419l5.318-5.318
					C63.034,44.366,62.331,44.25,61.579,44.25z"/>
				</g>
			</g>
		</g>
	</g>
	<g id="Green" style="display:none;">
		<g style="display:inline;">
			<path style="fill:#0A3631;" d="M83,76c-0.615-1.334-1.698-2.394-3.044-2.982L65,69v-6l-5.106,3.995
			C59.326,67.634,58.511,68,57.655,68H55h-2.655c-0.856,0-1.671-0.366-2.24-1.005L45,63v6l-14.958,4.018
			C28.698,73.606,27.615,74.666,27,76l-4,11h32h32L83,76z"/>
			<path style="fill:#D7FCF9;" d="M72,47.258c0-1.111-1-2.222-2-2.222s-1,1.111-1,1.111v-1.111c-0.018-9-1.024-15-14-15
			c-12.976,0-13.982,6-14,15V53l4,10l5.105,3.995C50.674,67.634,51.489,68,52.345,68H55h2.655c0.856,0,1.671-0.366,2.24-1.005L65,63
			l3.193-7.982C71.039,54.827,72,50.517,72,47.258z"/>
			<path style="fill:#FFFFFF;" d="M41,45v1.111c0,0,0-1.111-1-1.111s-2,1.111-2,2.222c0,3.259,0.961,7.568,3.807,7.76L45,62.964
			l5.105,3.995c0.569,0.64,1.384,1.005,2.24,1.005H55V30C42.024,30,41.018,36,41,45z"/>
			<path style="fill:#14635B;" d="M69.268,36.391C71.997,32.495,72,28,72,28H55h-6.866c-2.58,0-5.038,1.099-6.759,3.022
			c-1.721,1.922-2.542,4.486-2.256,7.051l2.897,17.467L45,63l5.104,3.995C50.674,67.634,51.489,68,52.345,68H55h2.655
			c0.856,0,1.671-0.366,2.24-1.005L65,63l2.984-7.461l2.288-16.629c0.175-0.699,0.018-1.441-0.426-2.009
			C69.685,36.694,69.483,36.53,69.268,36.391z M68,45.036l-2,10v0.031l-3,6h-1l-1.316-3.949c-0.408-1.225-1.555-2.051-2.846-2.051
			H55h-2.838c-1.291,0-2.438,0.826-2.846,2.051L48,61.067h-1l-3-6v-0.031l-2-10V36c0,0,0.011,5.447,13,5.958
			C55.638,41.983,56.297,42,57,42c5.351,0,8.786-1.784,11-4.076V45.036z"/>
			<path style="fill:#3E948B;" d="M42.016,55.539L45,63l5.104,3.995C50.674,67.634,51.489,68,52.345,68H55V55.067h-2.838
			c-1.291,0-2.438,0.826-2.846,2.051L48,61.067h-1l-3-6v-0.031l-2-10V36c0,0,0.011,5.447,13,5.958V28h-6.866
			c-2.58,0-5.038,1.099-6.759,3.022c-1.721,1.922-2.542,4.486-2.256,7.051"/>
			<g>
				<path style="fill:#D7FCF9;" d="M51,58h8c0,0,0,3-4,3S51,58,51,58z"/>
			</g>
			<path style="fill:#0A3631;" d="M61.5,42.625c-2.438,0-4.876,1.625-4.876,1.625H55h-1.626c0,0-2.437-1.625-4.874-1.625
			c-4.063,0-6.5,1.625-6.5,1.625v0.813h0.812c0,4.875,1.625,7.312,5.857,7.312c4.232,0,5.112-4.062,5.112-5.189
			c0-1.127,1.219-1.311,1.219-1.311s1.219,0.184,1.219,1.311c0,1.127,0.88,5.189,5.112,5.189c4.232,0,5.857-2.437,5.857-7.312H68
			V44.25C68,44.25,65.562,42.625,61.5,42.625z"/>
			<g>
				<g>
					<path style="fill:#3E948B;" d="M48.5,44.25c-2.244,0-4.063,1.006-4.063,3.25c0,0.908,0.301,1.743,0.804,2.419l5.318-5.318
					C49.955,44.366,49.253,44.25,48.5,44.25z"/>
				</g>
			</g>
			<g>
				<g>
					<path style="fill:#3E948B;" d="M61.579,44.25c-2.244,0-4.062,1.006-4.062,3.25c0,0.908,0.301,1.743,0.804,2.419l5.318-5.318
					C63.034,44.366,62.331,44.25,61.579,44.25z"/>
				</g>
			</g>
		</g>
	</g>
	<g id="R-Green" style="display:none;">
		<g style="display:inline;">
			<circle style="fill:#77E0C4;" cx="54.976" cy="55.024" r="55"/>
		</g>
		<g style="display:inline;">
			<path style="fill:#0A3631;" d="M83,76c-0.615-1.334-1.698-2.394-3.044-2.982L65,69v-6l-5.106,3.995
			C59.326,67.634,58.511,68,57.655,68H55h-2.655c-0.856,0-1.671-0.366-2.24-1.005L45,63v6l-14.958,4.018
			C28.698,73.606,27.615,74.666,27,76l-4,11h32h32L83,76z"/>
			<path style="fill:#D7FCF9;" d="M72,47.258c0-1.111-1-2.222-2-2.222s-1,1.111-1,1.111v-1.111c-0.018-9-1.024-15-14-15
			c-12.976,0-13.982,6-14,15V53l4,10l5.105,3.995C50.674,67.634,51.489,68,52.345,68H55h2.655c0.856,0,1.671-0.366,2.24-1.005L65,63
			l3.193-7.982C71.039,54.827,72,50.517,72,47.258z"/>
			<path style="fill:#FFFFFF;" d="M41,45v1.111c0,0,0-1.111-1-1.111s-2,1.111-2,2.222c0,3.259,0.961,7.568,3.807,7.76L45,62.964
			l5.105,3.995c0.569,0.64,1.384,1.005,2.24,1.005H55V30C42.024,30,41.018,36,41,45z"/>
			<path style="fill:#14635B;" d="M69.268,36.391C71.997,32.495,72,28,72,28H55h-6.866c-2.58,0-5.038,1.099-6.759,3.022
			c-1.721,1.922-2.542,4.486-2.256,7.051l2.897,17.467L45,63l5.104,3.995C50.674,67.634,51.489,68,52.345,68H55h2.655
			c0.856,0,1.671-0.366,2.24-1.005L65,63l2.984-7.461l2.288-16.629c0.175-0.699,0.018-1.441-0.426-2.009
			C69.685,36.694,69.483,36.53,69.268,36.391z M68,45.036l-2,10v0.031l-3,6h-1l-1.316-3.949c-0.408-1.225-1.555-2.051-2.846-2.051
			H55h-2.838c-1.291,0-2.438,0.826-2.846,2.051L48,61.067h-1l-3-6v-0.031l-2-10V36c0,0,0.011,5.447,13,5.958
			C55.638,41.983,56.297,42,57,42c5.351,0,8.786-1.784,11-4.076V45.036z"/>
			<path style="fill:#3E948B;" d="M42.016,55.539L45,63l5.104,3.995C50.674,67.634,51.489,68,52.345,68H55V55.067h-2.838
			c-1.291,0-2.438,0.826-2.846,2.051L48,61.067h-1l-3-6v-0.031l-2-10V36c0,0,0.011,5.447,13,5.958V28h-6.866
			c-2.58,0-5.038,1.099-6.759,3.022c-1.721,1.922-2.542,4.486-2.256,7.051"/>
			<g>
				<path style="fill:#D7FCF9;" d="M51,58h8c0,0,0,3-4,3S51,58,51,58z"/>
			</g>
			<path style="fill:#0A3631;" d="M61.5,42.625c-2.438,0-4.876,1.625-4.876,1.625H55h-1.626c0,0-2.437-1.625-4.874-1.625
			c-4.063,0-6.5,1.625-6.5,1.625v0.813h0.812c0,4.875,1.625,7.312,5.857,7.312c4.232,0,5.112-4.062,5.112-5.189
			c0-1.127,1.219-1.311,1.219-1.311s1.219,0.184,1.219,1.311c0,1.127,0.88,5.189,5.112,5.189c4.232,0,5.857-2.437,5.857-7.312H68
			V44.25C68,44.25,65.562,42.625,61.5,42.625z"/>
			<g>
				<g>
					<path style="fill:#3E948B;" d="M48.5,44.25c-2.244,0-4.063,1.006-4.063,3.25c0,0.908,0.301,1.743,0.804,2.419l5.318-5.318
					C49.955,44.366,49.253,44.25,48.5,44.25z"/>
				</g>
			</g>
			<g>
				<g>
					<path style="fill:#3E948B;" d="M61.579,44.25c-2.244,0-4.062,1.006-4.062,3.25c0,0.908,0.301,1.743,0.804,2.419l5.318-5.318
					C63.034,44.366,62.331,44.25,61.579,44.25z"/>
				</g>
			</g>
		</g>
	</g>
	<g id="Red" style="display:none;">
		<g style="display:inline;">
			<path style="fill:#4A1410;" d="M83,76c-0.615-1.334-1.698-2.394-3.044-2.982L65,69v-6l-5.106,3.995
			C59.326,67.634,58.511,68,57.655,68H55h-2.655c-0.856,0-1.671-0.366-2.24-1.005L45,63v6l-14.958,4.018
			C28.698,73.606,27.615,74.666,27,76l-4,11h32h32L83,76z"/>
			<path style="fill:#FFEFED;" d="M72,47.258c0-1.111-1-2.222-2-2.222s-1,1.111-1,1.111v-1.111c-0.018-9-1.024-15-14-15
			c-12.976,0-13.982,6-14,15V53l4,10l5.105,3.995C50.674,67.634,51.489,68,52.345,68H55h2.655c0.856,0,1.671-0.366,2.24-1.005L65,63
			l3.193-7.982C71.039,54.827,72,50.517,72,47.258z"/>
			<path style="fill:#FFFFFF;" d="M41,45v1.111c0,0,0-1.111-1-1.111s-2,1.111-2,2.222c0,3.259,0.961,7.568,3.807,7.76L45,62.964
			l5.105,3.995c0.569,0.64,1.384,1.005,2.24,1.005H55V30C42.024,30,41.018,36,41,45z"/>
			<path style="fill:#7D261E;" d="M69.268,36.391C71.997,32.495,72,28,72,28H55h-6.866c-2.58,0-5.038,1.099-6.759,3.022
			c-1.721,1.922-2.542,4.486-2.256,7.051l2.897,17.467L45,63l5.104,3.995C50.674,67.634,51.489,68,52.345,68H55h2.655
			c0.856,0,1.671-0.366,2.24-1.005L65,63l2.984-7.461l2.288-16.629c0.175-0.699,0.018-1.441-0.426-2.009
			C69.685,36.694,69.483,36.53,69.268,36.391z M68,45.036l-2,10v0.031l-3,6h-1l-1.316-3.949c-0.408-1.225-1.555-2.051-2.846-2.051
			H55h-2.838c-1.291,0-2.438,0.826-2.846,2.051L48,61.067h-1l-3-6v-0.031l-2-10V36c0,0,0.011,5.447,13,5.958
			C55.638,41.983,56.297,42,57,42c5.351,0,8.786-1.784,11-4.076V45.036z"/>
			<path style="fill:#B84E44;" d="M42.016,55.539L45,63l5.104,3.995C50.674,67.634,51.489,68,52.345,68H55V55.067h-2.838
			c-1.291,0-2.438,0.826-2.846,2.051L48,61.067h-1l-3-6v-0.031l-2-10V36c0,0,0.011,5.447,13,5.958V28h-6.866
			c-2.58,0-5.038,1.099-6.759,3.022c-1.721,1.922-2.542,4.486-2.256,7.051"/>
			<g>
				<path style="fill:#FFEFED;" d="M51,58h8c0,0,0,3-4,3S51,58,51,58z"/>
			</g>
			<path style="fill:#4A1410;" d="M61.5,42.625c-2.438,0-4.876,1.625-4.876,1.625H55h-1.626c0,0-2.437-1.625-4.874-1.625
			c-4.063,0-6.5,1.625-6.5,1.625v0.813h0.812c0,4.875,1.625,7.312,5.857,7.312c4.232,0,5.112-4.062,5.112-5.189
			c0-1.127,1.219-1.311,1.219-1.311s1.219,0.184,1.219,1.311c0,1.127,0.88,5.189,5.112,5.189c4.232,0,5.857-2.437,5.857-7.312H68
			V44.25C68,44.25,65.562,42.625,61.5,42.625z"/>
			<g>
				<g>
					<path style="fill:#B84E44;" d="M48.5,44.25c-2.244,0-4.063,1.006-4.063,3.25c0,0.908,0.301,1.743,0.804,2.419l5.318-5.318
					C49.955,44.366,49.253,44.25,48.5,44.25z"/>
				</g>
			</g>
			<g>
				<g>
					<path style="fill:#B84E44;" d="M61.579,44.25c-2.244,0-4.062,1.006-4.062,3.25c0,0.908,0.301,1.743,0.804,2.419l5.318-5.318
					C63.034,44.366,62.331,44.25,61.579,44.25z"/>
				</g>
			</g>
		</g>
	</g>
	<g id="R-Red" style="display:none;">
		<g style="display:inline;">
			<circle style="fill:#FABBAF;" cx="54.976" cy="55.024" r="55"/>
		</g>
		<g style="display:inline;">
			<path style="fill:#4A1410;" d="M83,76c-0.615-1.334-1.698-2.394-3.044-2.982L65,69v-6l-5.106,3.995
			C59.326,67.634,58.511,68,57.655,68H55h-2.655c-0.856,0-1.671-0.366-2.24-1.005L45,63v6l-14.958,4.018
			C28.698,73.606,27.615,74.666,27,76l-4,11h32h32L83,76z"/>
			<path style="fill:#FFEFED;" d="M72,47.258c0-1.111-1-2.222-2-2.222s-1,1.111-1,1.111v-1.111c-0.018-9-1.024-15-14-15
			c-12.976,0-13.982,6-14,15V53l4,10l5.105,3.995C50.674,67.634,51.489,68,52.345,68H55h2.655c0.856,0,1.671-0.366,2.24-1.005L65,63
			l3.193-7.982C71.039,54.827,72,50.517,72,47.258z"/>
			<path style="fill:#FFFFFF;" d="M41,45v1.111c0,0,0-1.111-1-1.111s-2,1.111-2,2.222c0,3.259,0.961,7.568,3.807,7.76L45,62.964
			l5.105,3.995c0.569,0.64,1.384,1.005,2.24,1.005H55V30C42.024,30,41.018,36,41,45z"/>
			<path style="fill:#7D261E;" d="M69.268,36.391C71.997,32.495,72,28,72,28H55h-6.866c-2.58,0-5.038,1.099-6.759,3.022
			c-1.721,1.922-2.542,4.486-2.256,7.051l2.897,17.467L45,63l5.104,3.995C50.674,67.634,51.489,68,52.345,68H55h2.655
			c0.856,0,1.671-0.366,2.24-1.005L65,63l2.984-7.461l2.288-16.629c0.175-0.699,0.018-1.441-0.426-2.009
			C69.685,36.694,69.483,36.53,69.268,36.391z M68,45.036l-2,10v0.031l-3,6h-1l-1.316-3.949c-0.408-1.225-1.555-2.051-2.846-2.051
			H55h-2.838c-1.291,0-2.438,0.826-2.846,2.051L48,61.067h-1l-3-6v-0.031l-2-10V36c0,0,0.011,5.447,13,5.958
			C55.638,41.983,56.297,42,57,42c5.351,0,8.786-1.784,11-4.076V45.036z"/>
			<path style="fill:#B84E44;" d="M42.016,55.539L45,63l5.104,3.995C50.674,67.634,51.489,68,52.345,68H55V55.067h-2.838
			c-1.291,0-2.438,0.826-2.846,2.051L48,61.067h-1l-3-6v-0.031l-2-10V36c0,0,0.011,5.447,13,5.958V28h-6.866
			c-2.58,0-5.038,1.099-6.759,3.022c-1.721,1.922-2.542,4.486-2.256,7.051"/>
			<g>
				<path style="fill:#FFEFED;" d="M51,58h8c0,0,0,3-4,3S51,58,51,58z"/>
			</g>
			<path style="fill:#4A1410;" d="M61.5,42.625c-2.438,0-4.876,1.625-4.876,1.625H55h-1.626c0,0-2.437-1.625-4.874-1.625
			c-4.063,0-6.5,1.625-6.5,1.625v0.813h0.812c0,4.875,1.625,7.312,5.857,7.312c4.232,0,5.112-4.062,5.112-5.189
			c0-1.127,1.219-1.311,1.219-1.311s1.219,0.184,1.219,1.311c0,1.127,0.88,5.189,5.112,5.189c4.232,0,5.857-2.437,5.857-7.312H68
			V44.25C68,44.25,65.562,42.625,61.5,42.625z"/>
			<g>
				<g>
					<path style="fill:#B84E44;" d="M48.5,44.25c-2.244,0-4.063,1.006-4.063,3.25c0,0.908,0.301,1.743,0.804,2.419l5.318-5.318
					C49.955,44.366,49.253,44.25,48.5,44.25z"/>
				</g>
			</g>
			<g>
				<g>
					<path style="fill:#B84E44;" d="M61.579,44.25c-2.244,0-4.062,1.006-4.062,3.25c0,0.908,0.301,1.743,0.804,2.419l5.318-5.318
					C63.034,44.366,62.331,44.25,61.579,44.25z"/>
				</g>
			</g>
		</g>
	</g>
	<g id="Yellow" style="display:none;">
		<g style="display:inline;">
			<path style="fill:#3D320C;" d="M83,76c-0.615-1.334-1.698-2.394-3.044-2.982L65,69v-6l-5.106,3.995
			C59.326,67.634,58.511,68,57.655,68H55h-2.655c-0.856,0-1.671-0.366-2.24-1.005L45,63v6l-14.958,4.018
			C28.698,73.606,27.615,74.666,27,76l-4,11h32h32L83,76z"/>
			<path style="fill:#FFF5D9;" d="M72,47.258c0-1.111-1-2.222-2-2.222s-1,1.111-1,1.111v-1.111c-0.018-9-1.024-15-14-15
			c-12.976,0-13.982,6-14,15V53l4,10l5.105,3.995C50.674,67.634,51.489,68,52.345,68H55h2.655c0.856,0,1.671-0.366,2.24-1.005L65,63
			l3.193-7.982C71.039,54.827,72,50.517,72,47.258z"/>
			<path style="fill:#FFFFFF;" d="M41,45v1.111c0,0,0-1.111-1-1.111s-2,1.111-2,2.222c0,3.259,0.961,7.568,3.807,7.76L45,62.964
			l5.105,3.995c0.569,0.64,1.384,1.005,2.24,1.005H55V30C42.024,30,41.018,36,41,45z"/>
			<path style="fill:#66510D;" d="M69.268,36.391C71.997,32.495,72,28,72,28H55h-6.866c-2.58,0-5.038,1.099-6.759,3.022
			c-1.721,1.922-2.542,4.486-2.256,7.051l2.897,17.467L45,63l5.104,3.995C50.674,67.634,51.489,68,52.345,68H55h2.655
			c0.856,0,1.671-0.366,2.24-1.005L65,63l2.984-7.461l2.288-16.629c0.175-0.699,0.018-1.441-0.426-2.009
			C69.685,36.694,69.483,36.53,69.268,36.391z M68,45.036l-2,10v0.031l-3,6h-1l-1.316-3.949c-0.408-1.225-1.555-2.051-2.846-2.051
			H55h-2.838c-1.291,0-2.438,0.826-2.846,2.051L48,61.067h-1l-3-6v-0.031l-2-10V36c0,0,0.011,5.447,13,5.958
			C55.638,41.983,56.297,42,57,42c5.351,0,8.786-1.784,11-4.076V45.036z"/>
			<path style="fill:#947615;" d="M42.016,55.539L45,63l5.104,3.995C50.674,67.634,51.489,68,52.345,68H55V55.067h-2.838
			c-1.291,0-2.438,0.826-2.846,2.051L48,61.067h-1l-3-6v-0.031l-2-10V36c0,0,0.011,5.447,13,5.958V28h-6.866
			c-2.58,0-5.038,1.099-6.759,3.022c-1.721,1.922-2.542,4.486-2.256,7.051"/>
			<g>
				<path style="fill:#FFF5D9;" d="M51,58h8c0,0,0,3-4,3S51,58,51,58z"/>
			</g>
			<path style="fill:#3D320C;" d="M61.5,42.625c-2.438,0-4.876,1.625-4.876,1.625H55h-1.626c0,0-2.437-1.625-4.874-1.625
			c-4.063,0-6.5,1.625-6.5,1.625v0.813h0.812c0,4.875,1.625,7.312,5.857,7.312c4.232,0,5.112-4.062,5.112-5.189
			c0-1.127,1.219-1.311,1.219-1.311s1.219,0.184,1.219,1.311c0,1.127,0.88,5.189,5.112,5.189c4.232,0,5.857-2.437,5.857-7.312H68
			V44.25C68,44.25,65.562,42.625,61.5,42.625z"/>
			<g>
				<g>
					<path style="fill:#947615;" d="M48.5,44.25c-2.244,0-4.063,1.006-4.063,3.25c0,0.908,0.301,1.743,0.804,2.419l5.318-5.318
					C49.955,44.366,49.253,44.25,48.5,44.25z"/>
				</g>
			</g>
			<g>
				<g>
					<path style="fill:#947615;" d="M61.579,44.25c-2.244,0-4.062,1.006-4.062,3.25c0,0.908,0.301,1.743,0.804,2.419l5.318-5.318
					C63.034,44.366,62.331,44.25,61.579,44.25z"/>
				</g>
			</g>
		</g>
	</g>
	<g id="R-Yellow" style="display:none;">
		<g style="display:inline;">
			<circle style="fill:#FFD75E;" cx="54.976" cy="55.024" r="55"/>
		</g>
		<g style="display:inline;">
			<path style="fill:#3D320C;" d="M83,76c-0.615-1.334-1.698-2.394-3.044-2.982L65,69v-6l-5.106,3.995
			C59.326,67.634,58.511,68,57.655,68H55h-2.655c-0.856,0-1.671-0.366-2.24-1.005L45,63v6l-14.958,4.018
			C28.698,73.606,27.615,74.666,27,76l-4,11h32h32L83,76z"/>
			<path style="fill:#FFF5D9;" d="M72,47.258c0-1.111-1-2.222-2-2.222s-1,1.111-1,1.111v-1.111c-0.018-9-1.024-15-14-15
			c-12.976,0-13.982,6-14,15V53l4,10l5.105,3.995C50.674,67.634,51.489,68,52.345,68H55h2.655c0.856,0,1.671-0.366,2.24-1.005L65,63
			l3.193-7.982C71.039,54.827,72,50.517,72,47.258z"/>
			<path style="fill:#FFFFFF;" d="M41,45v1.111c0,0,0-1.111-1-1.111s-2,1.111-2,2.222c0,3.259,0.961,7.568,3.807,7.76L45,62.964
			l5.105,3.995c0.569,0.64,1.384,1.005,2.24,1.005H55V30C42.024,30,41.018,36,41,45z"/>
			<path style="fill:#66510D;" d="M69.268,36.391C71.997,32.495,72,28,72,28H55h-6.866c-2.58,0-5.038,1.099-6.759,3.022
			c-1.721,1.922-2.542,4.486-2.256,7.051l2.897,17.467L45,63l5.104,3.995C50.674,67.634,51.489,68,52.345,68H55h2.655
			c0.856,0,1.671-0.366,2.24-1.005L65,63l2.984-7.461l2.288-16.629c0.175-0.699,0.018-1.441-0.426-2.009
			C69.685,36.694,69.483,36.53,69.268,36.391z M68,45.036l-2,10v0.031l-3,6h-1l-1.316-3.949c-0.408-1.225-1.555-2.051-2.846-2.051
			H55h-2.838c-1.291,0-2.438,0.826-2.846,2.051L48,61.067h-1l-3-6v-0.031l-2-10V36c0,0,0.011,5.447,13,5.958
			C55.638,41.983,56.297,42,57,42c5.351,0,8.786-1.784,11-4.076V45.036z"/>
			<path style="fill:#947615;" d="M42.016,55.539L45,63l5.104,3.995C50.674,67.634,51.489,68,52.345,68H55V55.067h-2.838
			c-1.291,0-2.438,0.826-2.846,2.051L48,61.067h-1l-3-6v-0.031l-2-10V36c0,0,0.011,5.447,13,5.958V28h-6.866
			c-2.58,0-5.038,1.099-6.759,3.022c-1.721,1.922-2.542,4.486-2.256,7.051"/>
			<g>
				<path style="fill:#FFF5D9;" d="M51,58h8c0,0,0,3-4,3S51,58,51,58z"/>
			</g>
			<path style="fill:#3D320C;" d="M61.5,42.625c-2.438,0-4.876,1.625-4.876,1.625H55h-1.626c0,0-2.437-1.625-4.874-1.625
			c-4.063,0-6.5,1.625-6.5,1.625v0.813h0.812c0,4.875,1.625,7.312,5.857,7.312c4.232,0,5.112-4.062,5.112-5.189
			c0-1.127,1.219-1.311,1.219-1.311s1.219,0.184,1.219,1.311c0,1.127,0.88,5.189,5.112,5.189c4.232,0,5.857-2.437,5.857-7.312H68
			V44.25C68,44.25,65.562,42.625,61.5,42.625z"/>
			<g>
				<g>
					<path style="fill:#947615;" d="M48.5,44.25c-2.244,0-4.063,1.006-4.063,3.25c0,0.908,0.301,1.743,0.804,2.419l5.318-5.318
					C49.955,44.366,49.253,44.25,48.5,44.25z"/>
				</g>
			</g>
			<g>
				<g>
					<path style="fill:#947615;" d="M61.579,44.25c-2.244,0-4.062,1.006-4.062,3.25c0,0.908,0.301,1.743,0.804,2.419l5.318-5.318
					C63.034,44.366,62.331,44.25,61.579,44.25z"/>
				</g>
			</g>
		</g>
	</g>
</svg>
